<?xml version="1.0" encoding="UTF-8" standalone="no"?><!DOCTYPE svg PUBLIC "-//W3C//DTD SVG 1.1//EN" "http://www.w3.org/Graphics/SVG/1.1/DTD/svg11.dtd"><svg width="100%" height="100%" viewBox="0 0 1075 1119" version="1.1" xmlns="http://www.w3.org/2000/svg" xmlns:xlink="http://www.w3.org/1999/xlink" xml:space="preserve" xmlns:serif="http://www.serif.com/" style="fill-rule:evenodd;clip-rule:evenodd;stroke-linejoin:round;stroke-miterlimit:2;"><g><g><path d="M677.281,708.175c-2.748,2.892 -5.884,5.437 -9.349,7.551c-30.137,18.497 -73.471,44.094 -109.628,61.309c-25.237,12.016 -51.687,22.667 -77.591,31.806c-62.032,21.884 -124.718,35.501 -191.041,41.702c-19.375,1.717 -77.258,-0.97 -101.057,-4.893c-71.857,-11.484 -125.433,-42.54 -156.763,-87.143c-31.398,-44.699 -40.558,-103.086 -23.111,-169.409c20.075,-76.138 66.035,-149.138 142.907,-226.01c70.298,-70.054 135.47,-116.923 227.247,-163.3c118.663,-60.064 237.865,-93.28 337.595,-97.247c66.955,-2.664 125.184,7.871 168.754,32.164c13.524,7.558 36.585,26.268 44,34.844c1.769,2.046 2.743,3.761 3.021,4.807l0.168,1.176l-0.103,1.023l-0.343,0.957l-0.62,0.902c-0.039,0.042 -0.078,0.084 -0.118,0.124l-0.941,0.689l-0.932,0.356c-0.449,0.117 -1.212,0.219 -2.257,0.219c-3.663,-0 -12.904,-1.094 -23.257,-2.686c-28.485,-4.345 -89.799,-6.031 -121.905,-3.134c-166.627,15.016 -363.77,92.76 -496.49,195.691c-106.235,82.386 -175.66,179.504 -181.682,255.386l-0.002,0.029c-2.361,26.913 0.168,44.394 8.901,62.808c13.794,28.715 40.476,48.863 76.665,60.108c55.365,17.202 132.728,13.604 221.024,-12.408l0.025,-0.007c17.917,-5.14 42.211,-13.707 65.471,-22.775c1.484,-0.784 3.026,-1.494 4.623,-2.124c-0,-0 65.931,-25.814 138.289,-73.047l0.017,-0.011c41.311,-26.967 84.715,-60.918 119.14,-101.029c16.474,-19.194 45.431,-21.402 64.625,-4.929c19.194,16.474 21.403,45.431 4.929,64.625c-37.739,43.971 -84.855,81.564 -130.211,111.876Zm-465.583,-560.329l-0.047,-0.053c-6.808,-11.808 -8.42,-25.91 -4.452,-38.95c3.966,-13.034 13.151,-23.843 25.373,-29.861c8.044,-4.056 16.114,-8.005 23.155,-11.181c32.378,-14.607 71.651,-28.11 84.239,-32.797c43.547,-16.39 102.509,-30.086 146.054,-34.245c23.993,-2.204 107.241,0.735 129.52,4.408l0.044,0.007c30.083,5.349 66.544,14.668 72.28,18.251l0.908,0.664l0.676,0.711l0.724,1.44l0.085,1.657l-0.247,0.857l-0.333,0.602l-0.603,0.771l-0.968,0.763c-0.535,0.334 -1.287,0.677 -2.24,0.969c-2.516,0.772 -6.977,1.337 -11.835,1.337c-20.031,-0 -77.708,9.448 -117.53,19.343c-60.801,15.019 -120.878,36.095 -180.953,63.952c-30.582,14.181 -69.511,34.702 -97.995,50.096c-23.415,12.546 -52.562,4.248 -65.855,-18.741Zm174.137,262.053c2.748,-2.892 5.884,-5.437 9.349,-7.551c30.137,-18.498 73.471,-44.094 109.628,-61.309c25.238,-12.017 51.687,-22.667 77.591,-31.806c62.032,-21.884 124.718,-35.501 191.041,-41.702c19.375,-1.717 77.258,0.969 101.058,4.893c71.856,11.484 125.432,42.54 156.762,87.142c31.398,44.7 40.558,103.087 23.111,169.41c-20.074,76.137 -66.035,149.138 -142.907,226.01c-70.297,70.053 -135.469,116.923 -227.247,163.3c-118.663,60.064 -237.865,93.28 -337.595,97.247c-66.954,2.663 -125.183,-7.871 -168.753,-32.164c-13.525,-7.558 -36.586,-26.268 -44,-34.844c-1.77,-2.046 -2.744,-3.762 -3.021,-4.807l-0.168,-1.177l0.103,-1.022l0.342,-0.957l0.621,-0.902c0.038,-0.043 0.077,-0.084 0.117,-0.124l0.941,-0.689l0.932,-0.356c0.449,-0.117 1.212,-0.219 2.257,-0.219c3.664,0 12.904,1.094 23.257,2.686c28.485,4.345 89.799,6.031 121.905,3.134c166.627,-15.016 363.77,-92.76 496.491,-195.691c106.234,-82.387 175.659,-179.504 181.681,-255.386l0.003,-0.029c2.36,-26.913 -0.169,-44.394 -8.902,-62.808c-13.793,-28.715 -40.475,-48.863 -76.665,-60.108c-55.365,-17.202 -132.728,-13.604 -221.024,12.408l-0.025,0.007c-17.917,5.139 -42.211,13.707 -65.471,22.774c-1.484,0.784 -3.026,1.495 -4.623,2.125c0,0 -65.931,25.814 -138.289,73.047l-0.017,0.011c-41.311,26.967 -84.714,60.917 -119.14,101.028c-16.474,19.194 -45.431,21.403 -64.625,4.93c-19.194,-16.474 -21.403,-45.431 -4.929,-64.625c37.739,-43.972 84.855,-81.564 130.211,-111.876Zm465.583,560.329l0.047,0.052c6.808,11.809 8.42,25.91 4.452,38.951c-3.965,13.034 -13.151,23.843 -25.373,29.861c-8.043,4.056 -16.114,8.005 -23.154,11.181c-32.379,14.606 -71.652,28.11 -84.24,32.796c-43.547,16.39 -102.509,30.087 -146.054,34.246c-23.993,2.203 -107.24,-0.736 -129.52,-4.408l-0.044,-0.008c-30.083,-5.348 -66.544,-14.667 -72.28,-18.251l-0.908,-0.663l-0.675,-0.711l-0.724,-1.44l-0.086,-1.657l0.247,-0.857l0.333,-0.602l0.603,-0.771l0.968,-0.763c0.535,-0.334 1.287,-0.677 2.24,-0.969c2.517,-0.772 6.977,-1.337 11.835,-1.337c20.031,-0 77.709,-9.448 117.53,-19.343c60.802,-15.019 120.879,-36.095 180.954,-63.953c30.581,-14.18 69.51,-34.702 97.994,-50.095c23.415,-12.546 52.562,-4.249 65.855,18.741Z" style="fill:url(#_Linear1);"/></g></g><defs><linearGradient id="_Linear1" x1="0" y1="0" x2="1" y2="0" gradientUnits="userSpaceOnUse" gradientTransform="matrix(1063.12,0,0,-1118.07,0,559.037)"><stop offset="0" style="stop-color:#0F524E;stop-opacity:1"/><stop offset="1" style="stop-color:#0F524E;stop-opacity:1"/></linearGradient></defs></svg>