<?xml version="1.0" standalone="no"?>
<svg xmlns="http://www.w3.org/2000/svg" version="1.1" width="231" height="231">
	<title>QR Code</title>
	<desc>BEGIN:VCARD
VERSION:4.0
FN:Javier López Cacenave
N:Javier;López Cacenave;;;;;
GENDER:M;
LANGUAGE:es-ES
LANG;PREF=1:en
LANG;PREF=2:fr
EMAIL;TYPE=WORK:eljaviluki@gmail.com
TEL;TYPE=WORK;VALUE=uri:tel:+34602085010
ADR;TZ=Europe/Madrid:;;;;;;Spain;;;;;;;;;;;
TITLE:Full-Stack Developer
PHOTO;VALUE=uri:eljaviluki.com/portrait.png
URL;LABEL=&quot;_$!&lt;HomePage&gt;!$_&quot;:eljaviluki.com
URL;LABEL=LinkedIn:linkedin.com/in/eljaviluki
URL;LABEL=GitHub:github.com/ElJaviLuki
END:VCARD</desc>
	<rect style="fill:rgb(255, 255, 255);fill-opacity:1" x="0" y="0" width="231" height="231" />
	<g id="elements">
		<path style="fill:rgb(0, 0, 0)" d="M 0,0 l 3,0 0,3 -3,0 z M 3,0 l 3,0 0,3 -3,0 z M 6,0 l 3,0 0,3 -3,0 z M 9,0 l 3,0 0,3 -3,0 z M 12,0 l 3,0 0,3 -3,0 z M 15,0 l 3,0 0,3 -3,0 z M 18,0 l 3,0 0,3 -3,0 z M 27,0 l 3,0 0,3 -3,0 z M 33,0 l 3,0 0,3 -3,0 z M 45,0 l 3,0 0,3 -3,0 z M 51,0 l 3,0 0,3 -3,0 z M 54,0 l 3,0 0,3 -3,0 z M 57,0 l 3,0 0,3 -3,0 z M 66,0 l 3,0 0,3 -3,0 z M 75,0 l 3,0 0,3 -3,0 z M 81,0 l 3,0 0,3 -3,0 z M 87,0 l 3,0 0,3 -3,0 z M 93,0 l 3,0 0,3 -3,0 z M 105,0 l 3,0 0,3 -3,0 z M 108,0 l 3,0 0,3 -3,0 z M 111,0 l 3,0 0,3 -3,0 z M 114,0 l 3,0 0,3 -3,0 z M 117,0 l 3,0 0,3 -3,0 z M 120,0 l 3,0 0,3 -3,0 z M 123,0 l 3,0 0,3 -3,0 z M 132,0 l 3,0 0,3 -3,0 z M 141,0 l 3,0 0,3 -3,0 z M 144,0 l 3,0 0,3 -3,0 z M 150,0 l 3,0 0,3 -3,0 z M 153,0 l 3,0 0,3 -3,0 z M 156,0 l 3,0 0,3 -3,0 z M 159,0 l 3,0 0,3 -3,0 z M 162,0 l 3,0 0,3 -3,0 z M 165,0 l 3,0 0,3 -3,0 z M 171,0 l 3,0 0,3 -3,0 z M 174,0 l 3,0 0,3 -3,0 z M 180,0 l 3,0 0,3 -3,0 z M 183,0 l 3,0 0,3 -3,0 z M 192,0 l 3,0 0,3 -3,0 z M 210,0 l 3,0 0,3 -3,0 z M 213,0 l 3,0 0,3 -3,0 z M 216,0 l 3,0 0,3 -3,0 z M 219,0 l 3,0 0,3 -3,0 z M 222,0 l 3,0 0,3 -3,0 z M 225,0 l 3,0 0,3 -3,0 z M 228,0 l 3,0 0,3 -3,0 z M 0,3 l 3,0 0,3 -3,0 z M 18,3 l 3,0 0,3 -3,0 z M 24,3 l 3,0 0,3 -3,0 z M 27,3 l 3,0 0,3 -3,0 z M 30,3 l 3,0 0,3 -3,0 z M 33,3 l 3,0 0,3 -3,0 z M 36,3 l 3,0 0,3 -3,0 z M 39,3 l 3,0 0,3 -3,0 z M 42,3 l 3,0 0,3 -3,0 z M 45,3 l 3,0 0,3 -3,0 z M 51,3 l 3,0 0,3 -3,0 z M 54,3 l 3,0 0,3 -3,0 z M 57,3 l 3,0 0,3 -3,0 z M 60,3 l 3,0 0,3 -3,0 z M 63,3 l 3,0 0,3 -3,0 z M 69,3 l 3,0 0,3 -3,0 z M 72,3 l 3,0 0,3 -3,0 z M 81,3 l 3,0 0,3 -3,0 z M 84,3 l 3,0 0,3 -3,0 z M 90,3 l 3,0 0,3 -3,0 z M 93,3 l 3,0 0,3 -3,0 z M 120,3 l 3,0 0,3 -3,0 z M 126,3 l 3,0 0,3 -3,0 z M 129,3 l 3,0 0,3 -3,0 z M 132,3 l 3,0 0,3 -3,0 z M 135,3 l 3,0 0,3 -3,0 z M 138,3 l 3,0 0,3 -3,0 z M 147,3 l 3,0 0,3 -3,0 z M 162,3 l 3,0 0,3 -3,0 z M 165,3 l 3,0 0,3 -3,0 z M 171,3 l 3,0 0,3 -3,0 z M 174,3 l 3,0 0,3 -3,0 z M 180,3 l 3,0 0,3 -3,0 z M 183,3 l 3,0 0,3 -3,0 z M 195,3 l 3,0 0,3 -3,0 z M 198,3 l 3,0 0,3 -3,0 z M 204,3 l 3,0 0,3 -3,0 z M 210,3 l 3,0 0,3 -3,0 z M 228,3 l 3,0 0,3 -3,0 z M 0,6 l 3,0 0,3 -3,0 z M 6,6 l 3,0 0,3 -3,0 z M 9,6 l 3,0 0,3 -3,0 z M 12,6 l 3,0 0,3 -3,0 z M 18,6 l 3,0 0,3 -3,0 z M 27,6 l 3,0 0,3 -3,0 z M 30,6 l 3,0 0,3 -3,0 z M 36,6 l 3,0 0,3 -3,0 z M 45,6 l 3,0 0,3 -3,0 z M 48,6 l 3,0 0,3 -3,0 z M 51,6 l 3,0 0,3 -3,0 z M 57,6 l 3,0 0,3 -3,0 z M 66,6 l 3,0 0,3 -3,0 z M 69,6 l 3,0 0,3 -3,0 z M 75,6 l 3,0 0,3 -3,0 z M 87,6 l 3,0 0,3 -3,0 z M 96,6 l 3,0 0,3 -3,0 z M 102,6 l 3,0 0,3 -3,0 z M 108,6 l 3,0 0,3 -3,0 z M 111,6 l 3,0 0,3 -3,0 z M 117,6 l 3,0 0,3 -3,0 z M 120,6 l 3,0 0,3 -3,0 z M 123,6 l 3,0 0,3 -3,0 z M 126,6 l 3,0 0,3 -3,0 z M 138,6 l 3,0 0,3 -3,0 z M 147,6 l 3,0 0,3 -3,0 z M 159,6 l 3,0 0,3 -3,0 z M 162,6 l 3,0 0,3 -3,0 z M 171,6 l 3,0 0,3 -3,0 z M 177,6 l 3,0 0,3 -3,0 z M 180,6 l 3,0 0,3 -3,0 z M 183,6 l 3,0 0,3 -3,0 z M 189,6 l 3,0 0,3 -3,0 z M 204,6 l 3,0 0,3 -3,0 z M 210,6 l 3,0 0,3 -3,0 z M 216,6 l 3,0 0,3 -3,0 z M 219,6 l 3,0 0,3 -3,0 z M 222,6 l 3,0 0,3 -3,0 z M 228,6 l 3,0 0,3 -3,0 z M 0,9 l 3,0 0,3 -3,0 z M 6,9 l 3,0 0,3 -3,0 z M 9,9 l 3,0 0,3 -3,0 z M 12,9 l 3,0 0,3 -3,0 z M 18,9 l 3,0 0,3 -3,0 z M 24,9 l 3,0 0,3 -3,0 z M 30,9 l 3,0 0,3 -3,0 z M 36,9 l 3,0 0,3 -3,0 z M 39,9 l 3,0 0,3 -3,0 z M 42,9 l 3,0 0,3 -3,0 z M 48,9 l 3,0 0,3 -3,0 z M 51,9 l 3,0 0,3 -3,0 z M 54,9 l 3,0 0,3 -3,0 z M 57,9 l 3,0 0,3 -3,0 z M 60,9 l 3,0 0,3 -3,0 z M 63,9 l 3,0 0,3 -3,0 z M 66,9 l 3,0 0,3 -3,0 z M 69,9 l 3,0 0,3 -3,0 z M 72,9 l 3,0 0,3 -3,0 z M 75,9 l 3,0 0,3 -3,0 z M 81,9 l 3,0 0,3 -3,0 z M 87,9 l 3,0 0,3 -3,0 z M 90,9 l 3,0 0,3 -3,0 z M 93,9 l 3,0 0,3 -3,0 z M 99,9 l 3,0 0,3 -3,0 z M 102,9 l 3,0 0,3 -3,0 z M 105,9 l 3,0 0,3 -3,0 z M 114,9 l 3,0 0,3 -3,0 z M 117,9 l 3,0 0,3 -3,0 z M 120,9 l 3,0 0,3 -3,0 z M 123,9 l 3,0 0,3 -3,0 z M 132,9 l 3,0 0,3 -3,0 z M 138,9 l 3,0 0,3 -3,0 z M 141,9 l 3,0 0,3 -3,0 z M 144,9 l 3,0 0,3 -3,0 z M 147,9 l 3,0 0,3 -3,0 z M 177,9 l 3,0 0,3 -3,0 z M 180,9 l 3,0 0,3 -3,0 z M 204,9 l 3,0 0,3 -3,0 z M 210,9 l 3,0 0,3 -3,0 z M 216,9 l 3,0 0,3 -3,0 z M 219,9 l 3,0 0,3 -3,0 z M 222,9 l 3,0 0,3 -3,0 z M 228,9 l 3,0 0,3 -3,0 z M 0,12 l 3,0 0,3 -3,0 z M 6,12 l 3,0 0,3 -3,0 z M 9,12 l 3,0 0,3 -3,0 z M 12,12 l 3,0 0,3 -3,0 z M 18,12 l 3,0 0,3 -3,0 z M 27,12 l 3,0 0,3 -3,0 z M 39,12 l 3,0 0,3 -3,0 z M 60,12 l 3,0 0,3 -3,0 z M 66,12 l 3,0 0,3 -3,0 z M 69,12 l 3,0 0,3 -3,0 z M 72,12 l 3,0 0,3 -3,0 z M 75,12 l 3,0 0,3 -3,0 z M 78,12 l 3,0 0,3 -3,0 z M 81,12 l 3,0 0,3 -3,0 z M 84,12 l 3,0 0,3 -3,0 z M 87,12 l 3,0 0,3 -3,0 z M 90,12 l 3,0 0,3 -3,0 z M 93,12 l 3,0 0,3 -3,0 z M 96,12 l 3,0 0,3 -3,0 z M 108,12 l 3,0 0,3 -3,0 z M 120,12 l 3,0 0,3 -3,0 z M 123,12 l 3,0 0,3 -3,0 z M 126,12 l 3,0 0,3 -3,0 z M 132,12 l 3,0 0,3 -3,0 z M 135,12 l 3,0 0,3 -3,0 z M 138,12 l 3,0 0,3 -3,0 z M 141,12 l 3,0 0,3 -3,0 z M 144,12 l 3,0 0,3 -3,0 z M 147,12 l 3,0 0,3 -3,0 z M 150,12 l 3,0 0,3 -3,0 z M 156,12 l 3,0 0,3 -3,0 z M 159,12 l 3,0 0,3 -3,0 z M 171,12 l 3,0 0,3 -3,0 z M 180,12 l 3,0 0,3 -3,0 z M 192,12 l 3,0 0,3 -3,0 z M 198,12 l 3,0 0,3 -3,0 z M 201,12 l 3,0 0,3 -3,0 z M 204,12 l 3,0 0,3 -3,0 z M 210,12 l 3,0 0,3 -3,0 z M 216,12 l 3,0 0,3 -3,0 z M 219,12 l 3,0 0,3 -3,0 z M 222,12 l 3,0 0,3 -3,0 z M 228,12 l 3,0 0,3 -3,0 z M 0,15 l 3,0 0,3 -3,0 z M 18,15 l 3,0 0,3 -3,0 z M 24,15 l 3,0 0,3 -3,0 z M 27,15 l 3,0 0,3 -3,0 z M 36,15 l 3,0 0,3 -3,0 z M 45,15 l 3,0 0,3 -3,0 z M 51,15 l 3,0 0,3 -3,0 z M 54,15 l 3,0 0,3 -3,0 z M 57,15 l 3,0 0,3 -3,0 z M 60,15 l 3,0 0,3 -3,0 z M 69,15 l 3,0 0,3 -3,0 z M 72,15 l 3,0 0,3 -3,0 z M 84,15 l 3,0 0,3 -3,0 z M 93,15 l 3,0 0,3 -3,0 z M 99,15 l 3,0 0,3 -3,0 z M 105,15 l 3,0 0,3 -3,0 z M 108,15 l 3,0 0,3 -3,0 z M 111,15 l 3,0 0,3 -3,0 z M 132,15 l 3,0 0,3 -3,0 z M 135,15 l 3,0 0,3 -3,0 z M 138,15 l 3,0 0,3 -3,0 z M 150,15 l 3,0 0,3 -3,0 z M 162,15 l 3,0 0,3 -3,0 z M 174,15 l 3,0 0,3 -3,0 z M 180,15 l 3,0 0,3 -3,0 z M 183,15 l 3,0 0,3 -3,0 z M 186,15 l 3,0 0,3 -3,0 z M 198,15 l 3,0 0,3 -3,0 z M 210,15 l 3,0 0,3 -3,0 z M 228,15 l 3,0 0,3 -3,0 z M 0,18 l 3,0 0,3 -3,0 z M 3,18 l 3,0 0,3 -3,0 z M 6,18 l 3,0 0,3 -3,0 z M 9,18 l 3,0 0,3 -3,0 z M 12,18 l 3,0 0,3 -3,0 z M 15,18 l 3,0 0,3 -3,0 z M 18,18 l 3,0 0,3 -3,0 z M 24,18 l 3,0 0,3 -3,0 z M 30,18 l 3,0 0,3 -3,0 z M 36,18 l 3,0 0,3 -3,0 z M 42,18 l 3,0 0,3 -3,0 z M 48,18 l 3,0 0,3 -3,0 z M 54,18 l 3,0 0,3 -3,0 z M 60,18 l 3,0 0,3 -3,0 z M 66,18 l 3,0 0,3 -3,0 z M 72,18 l 3,0 0,3 -3,0 z M 78,18 l 3,0 0,3 -3,0 z M 84,18 l 3,0 0,3 -3,0 z M 90,18 l 3,0 0,3 -3,0 z M 96,18 l 3,0 0,3 -3,0 z M 102,18 l 3,0 0,3 -3,0 z M 108,18 l 3,0 0,3 -3,0 z M 114,18 l 3,0 0,3 -3,0 z M 120,18 l 3,0 0,3 -3,0 z M 126,18 l 3,0 0,3 -3,0 z M 132,18 l 3,0 0,3 -3,0 z M 138,18 l 3,0 0,3 -3,0 z M 144,18 l 3,0 0,3 -3,0 z M 150,18 l 3,0 0,3 -3,0 z M 156,18 l 3,0 0,3 -3,0 z M 162,18 l 3,0 0,3 -3,0 z M 168,18 l 3,0 0,3 -3,0 z M 174,18 l 3,0 0,3 -3,0 z M 180,18 l 3,0 0,3 -3,0 z M 186,18 l 3,0 0,3 -3,0 z M 192,18 l 3,0 0,3 -3,0 z M 198,18 l 3,0 0,3 -3,0 z M 204,18 l 3,0 0,3 -3,0 z M 210,18 l 3,0 0,3 -3,0 z M 213,18 l 3,0 0,3 -3,0 z M 216,18 l 3,0 0,3 -3,0 z M 219,18 l 3,0 0,3 -3,0 z M 222,18 l 3,0 0,3 -3,0 z M 225,18 l 3,0 0,3 -3,0 z M 228,18 l 3,0 0,3 -3,0 z M 27,21 l 3,0 0,3 -3,0 z M 30,21 l 3,0 0,3 -3,0 z M 42,21 l 3,0 0,3 -3,0 z M 45,21 l 3,0 0,3 -3,0 z M 51,21 l 3,0 0,3 -3,0 z M 63,21 l 3,0 0,3 -3,0 z M 69,21 l 3,0 0,3 -3,0 z M 72,21 l 3,0 0,3 -3,0 z M 84,21 l 3,0 0,3 -3,0 z M 90,21 l 3,0 0,3 -3,0 z M 102,21 l 3,0 0,3 -3,0 z M 108,21 l 3,0 0,3 -3,0 z M 111,21 l 3,0 0,3 -3,0 z M 114,21 l 3,0 0,3 -3,0 z M 117,21 l 3,0 0,3 -3,0 z M 123,21 l 3,0 0,3 -3,0 z M 129,21 l 3,0 0,3 -3,0 z M 132,21 l 3,0 0,3 -3,0 z M 135,21 l 3,0 0,3 -3,0 z M 138,21 l 3,0 0,3 -3,0 z M 150,21 l 3,0 0,3 -3,0 z M 162,21 l 3,0 0,3 -3,0 z M 168,21 l 3,0 0,3 -3,0 z M 180,21 l 3,0 0,3 -3,0 z M 189,21 l 3,0 0,3 -3,0 z M 195,21 l 3,0 0,3 -3,0 z M 198,21 l 3,0 0,3 -3,0 z M 201,21 l 3,0 0,3 -3,0 z M 0,24 l 3,0 0,3 -3,0 z M 3,24 l 3,0 0,3 -3,0 z M 6,24 l 3,0 0,3 -3,0 z M 9,24 l 3,0 0,3 -3,0 z M 12,24 l 3,0 0,3 -3,0 z M 18,24 l 3,0 0,3 -3,0 z M 21,24 l 3,0 0,3 -3,0 z M 24,24 l 3,0 0,3 -3,0 z M 30,24 l 3,0 0,3 -3,0 z M 33,24 l 3,0 0,3 -3,0 z M 42,24 l 3,0 0,3 -3,0 z M 48,24 l 3,0 0,3 -3,0 z M 51,24 l 3,0 0,3 -3,0 z M 54,24 l 3,0 0,3 -3,0 z M 57,24 l 3,0 0,3 -3,0 z M 60,24 l 3,0 0,3 -3,0 z M 63,24 l 3,0 0,3 -3,0 z M 72,24 l 3,0 0,3 -3,0 z M 75,24 l 3,0 0,3 -3,0 z M 78,24 l 3,0 0,3 -3,0 z M 81,24 l 3,0 0,3 -3,0 z M 84,24 l 3,0 0,3 -3,0 z M 87,24 l 3,0 0,3 -3,0 z M 90,24 l 3,0 0,3 -3,0 z M 93,24 l 3,0 0,3 -3,0 z M 99,24 l 3,0 0,3 -3,0 z M 102,24 l 3,0 0,3 -3,0 z M 105,24 l 3,0 0,3 -3,0 z M 111,24 l 3,0 0,3 -3,0 z M 120,24 l 3,0 0,3 -3,0 z M 123,24 l 3,0 0,3 -3,0 z M 135,24 l 3,0 0,3 -3,0 z M 138,24 l 3,0 0,3 -3,0 z M 141,24 l 3,0 0,3 -3,0 z M 144,24 l 3,0 0,3 -3,0 z M 147,24 l 3,0 0,3 -3,0 z M 150,24 l 3,0 0,3 -3,0 z M 168,24 l 3,0 0,3 -3,0 z M 171,24 l 3,0 0,3 -3,0 z M 174,24 l 3,0 0,3 -3,0 z M 183,24 l 3,0 0,3 -3,0 z M 198,24 l 3,0 0,3 -3,0 z M 201,24 l 3,0 0,3 -3,0 z M 204,24 l 3,0 0,3 -3,0 z M 207,24 l 3,0 0,3 -3,0 z M 213,24 l 3,0 0,3 -3,0 z M 219,24 l 3,0 0,3 -3,0 z M 225,24 l 3,0 0,3 -3,0 z M 0,27 l 3,0 0,3 -3,0 z M 6,27 l 3,0 0,3 -3,0 z M 15,27 l 3,0 0,3 -3,0 z M 21,27 l 3,0 0,3 -3,0 z M 24,27 l 3,0 0,3 -3,0 z M 27,27 l 3,0 0,3 -3,0 z M 33,27 l 3,0 0,3 -3,0 z M 36,27 l 3,0 0,3 -3,0 z M 60,27 l 3,0 0,3 -3,0 z M 63,27 l 3,0 0,3 -3,0 z M 66,27 l 3,0 0,3 -3,0 z M 75,27 l 3,0 0,3 -3,0 z M 78,27 l 3,0 0,3 -3,0 z M 84,27 l 3,0 0,3 -3,0 z M 90,27 l 3,0 0,3 -3,0 z M 96,27 l 3,0 0,3 -3,0 z M 111,27 l 3,0 0,3 -3,0 z M 123,27 l 3,0 0,3 -3,0 z M 129,27 l 3,0 0,3 -3,0 z M 135,27 l 3,0 0,3 -3,0 z M 138,27 l 3,0 0,3 -3,0 z M 141,27 l 3,0 0,3 -3,0 z M 144,27 l 3,0 0,3 -3,0 z M 150,27 l 3,0 0,3 -3,0 z M 159,27 l 3,0 0,3 -3,0 z M 168,27 l 3,0 0,3 -3,0 z M 186,27 l 3,0 0,3 -3,0 z M 189,27 l 3,0 0,3 -3,0 z M 195,27 l 3,0 0,3 -3,0 z M 210,27 l 3,0 0,3 -3,0 z M 213,27 l 3,0 0,3 -3,0 z M 216,27 l 3,0 0,3 -3,0 z M 219,27 l 3,0 0,3 -3,0 z M 222,27 l 3,0 0,3 -3,0 z M 225,27 l 3,0 0,3 -3,0 z M 9,30 l 3,0 0,3 -3,0 z M 12,30 l 3,0 0,3 -3,0 z M 15,30 l 3,0 0,3 -3,0 z M 18,30 l 3,0 0,3 -3,0 z M 21,30 l 3,0 0,3 -3,0 z M 45,30 l 3,0 0,3 -3,0 z M 48,30 l 3,0 0,3 -3,0 z M 51,30 l 3,0 0,3 -3,0 z M 54,30 l 3,0 0,3 -3,0 z M 72,30 l 3,0 0,3 -3,0 z M 75,30 l 3,0 0,3 -3,0 z M 78,30 l 3,0 0,3 -3,0 z M 81,30 l 3,0 0,3 -3,0 z M 84,30 l 3,0 0,3 -3,0 z M 87,30 l 3,0 0,3 -3,0 z M 90,30 l 3,0 0,3 -3,0 z M 99,30 l 3,0 0,3 -3,0 z M 105,30 l 3,0 0,3 -3,0 z M 129,30 l 3,0 0,3 -3,0 z M 132,30 l 3,0 0,3 -3,0 z M 135,30 l 3,0 0,3 -3,0 z M 138,30 l 3,0 0,3 -3,0 z M 141,30 l 3,0 0,3 -3,0 z M 144,30 l 3,0 0,3 -3,0 z M 147,30 l 3,0 0,3 -3,0 z M 156,30 l 3,0 0,3 -3,0 z M 159,30 l 3,0 0,3 -3,0 z M 177,30 l 3,0 0,3 -3,0 z M 180,30 l 3,0 0,3 -3,0 z M 183,30 l 3,0 0,3 -3,0 z M 198,30 l 3,0 0,3 -3,0 z M 201,30 l 3,0 0,3 -3,0 z M 219,30 l 3,0 0,3 -3,0 z M 225,30 l 3,0 0,3 -3,0 z M 228,30 l 3,0 0,3 -3,0 z M 3,33 l 3,0 0,3 -3,0 z M 9,33 l 3,0 0,3 -3,0 z M 15,33 l 3,0 0,3 -3,0 z M 21,33 l 3,0 0,3 -3,0 z M 24,33 l 3,0 0,3 -3,0 z M 30,33 l 3,0 0,3 -3,0 z M 33,33 l 3,0 0,3 -3,0 z M 39,33 l 3,0 0,3 -3,0 z M 42,33 l 3,0 0,3 -3,0 z M 45,33 l 3,0 0,3 -3,0 z M 51,33 l 3,0 0,3 -3,0 z M 54,33 l 3,0 0,3 -3,0 z M 57,33 l 3,0 0,3 -3,0 z M 60,33 l 3,0 0,3 -3,0 z M 63,33 l 3,0 0,3 -3,0 z M 66,33 l 3,0 0,3 -3,0 z M 84,33 l 3,0 0,3 -3,0 z M 87,33 l 3,0 0,3 -3,0 z M 90,33 l 3,0 0,3 -3,0 z M 99,33 l 3,0 0,3 -3,0 z M 102,33 l 3,0 0,3 -3,0 z M 108,33 l 3,0 0,3 -3,0 z M 111,33 l 3,0 0,3 -3,0 z M 114,33 l 3,0 0,3 -3,0 z M 117,33 l 3,0 0,3 -3,0 z M 120,33 l 3,0 0,3 -3,0 z M 123,33 l 3,0 0,3 -3,0 z M 126,33 l 3,0 0,3 -3,0 z M 129,33 l 3,0 0,3 -3,0 z M 135,33 l 3,0 0,3 -3,0 z M 144,33 l 3,0 0,3 -3,0 z M 147,33 l 3,0 0,3 -3,0 z M 150,33 l 3,0 0,3 -3,0 z M 153,33 l 3,0 0,3 -3,0 z M 156,33 l 3,0 0,3 -3,0 z M 162,33 l 3,0 0,3 -3,0 z M 165,33 l 3,0 0,3 -3,0 z M 168,33 l 3,0 0,3 -3,0 z M 177,33 l 3,0 0,3 -3,0 z M 180,33 l 3,0 0,3 -3,0 z M 189,33 l 3,0 0,3 -3,0 z M 192,33 l 3,0 0,3 -3,0 z M 198,33 l 3,0 0,3 -3,0 z M 201,33 l 3,0 0,3 -3,0 z M 204,33 l 3,0 0,3 -3,0 z M 207,33 l 3,0 0,3 -3,0 z M 210,33 l 3,0 0,3 -3,0 z M 213,33 l 3,0 0,3 -3,0 z M 216,33 l 3,0 0,3 -3,0 z M 225,33 l 3,0 0,3 -3,0 z M 0,36 l 3,0 0,3 -3,0 z M 3,36 l 3,0 0,3 -3,0 z M 6,36 l 3,0 0,3 -3,0 z M 12,36 l 3,0 0,3 -3,0 z M 18,36 l 3,0 0,3 -3,0 z M 27,36 l 3,0 0,3 -3,0 z M 30,36 l 3,0 0,3 -3,0 z M 39,36 l 3,0 0,3 -3,0 z M 42,36 l 3,0 0,3 -3,0 z M 45,36 l 3,0 0,3 -3,0 z M 48,36 l 3,0 0,3 -3,0 z M 54,36 l 3,0 0,3 -3,0 z M 57,36 l 3,0 0,3 -3,0 z M 60,36 l 3,0 0,3 -3,0 z M 66,36 l 3,0 0,3 -3,0 z M 72,36 l 3,0 0,3 -3,0 z M 81,36 l 3,0 0,3 -3,0 z M 90,36 l 3,0 0,3 -3,0 z M 114,36 l 3,0 0,3 -3,0 z M 120,36 l 3,0 0,3 -3,0 z M 123,36 l 3,0 0,3 -3,0 z M 135,36 l 3,0 0,3 -3,0 z M 138,36 l 3,0 0,3 -3,0 z M 147,36 l 3,0 0,3 -3,0 z M 153,36 l 3,0 0,3 -3,0 z M 159,36 l 3,0 0,3 -3,0 z M 168,36 l 3,0 0,3 -3,0 z M 174,36 l 3,0 0,3 -3,0 z M 180,36 l 3,0 0,3 -3,0 z M 189,36 l 3,0 0,3 -3,0 z M 195,36 l 3,0 0,3 -3,0 z M 198,36 l 3,0 0,3 -3,0 z M 204,36 l 3,0 0,3 -3,0 z M 213,36 l 3,0 0,3 -3,0 z M 222,36 l 3,0 0,3 -3,0 z M 0,39 l 3,0 0,3 -3,0 z M 9,39 l 3,0 0,3 -3,0 z M 12,39 l 3,0 0,3 -3,0 z M 15,39 l 3,0 0,3 -3,0 z M 21,39 l 3,0 0,3 -3,0 z M 24,39 l 3,0 0,3 -3,0 z M 27,39 l 3,0 0,3 -3,0 z M 30,39 l 3,0 0,3 -3,0 z M 36,39 l 3,0 0,3 -3,0 z M 48,39 l 3,0 0,3 -3,0 z M 54,39 l 3,0 0,3 -3,0 z M 60,39 l 3,0 0,3 -3,0 z M 63,39 l 3,0 0,3 -3,0 z M 66,39 l 3,0 0,3 -3,0 z M 72,39 l 3,0 0,3 -3,0 z M 78,39 l 3,0 0,3 -3,0 z M 84,39 l 3,0 0,3 -3,0 z M 90,39 l 3,0 0,3 -3,0 z M 96,39 l 3,0 0,3 -3,0 z M 99,39 l 3,0 0,3 -3,0 z M 108,39 l 3,0 0,3 -3,0 z M 123,39 l 3,0 0,3 -3,0 z M 126,39 l 3,0 0,3 -3,0 z M 132,39 l 3,0 0,3 -3,0 z M 135,39 l 3,0 0,3 -3,0 z M 141,39 l 3,0 0,3 -3,0 z M 144,39 l 3,0 0,3 -3,0 z M 153,39 l 3,0 0,3 -3,0 z M 159,39 l 3,0 0,3 -3,0 z M 162,39 l 3,0 0,3 -3,0 z M 165,39 l 3,0 0,3 -3,0 z M 168,39 l 3,0 0,3 -3,0 z M 177,39 l 3,0 0,3 -3,0 z M 186,39 l 3,0 0,3 -3,0 z M 192,39 l 3,0 0,3 -3,0 z M 198,39 l 3,0 0,3 -3,0 z M 204,39 l 3,0 0,3 -3,0 z M 210,39 l 3,0 0,3 -3,0 z M 213,39 l 3,0 0,3 -3,0 z M 216,39 l 3,0 0,3 -3,0 z M 219,39 l 3,0 0,3 -3,0 z M 225,39 l 3,0 0,3 -3,0 z M 228,39 l 3,0 0,3 -3,0 z M 0,42 l 3,0 0,3 -3,0 z M 3,42 l 3,0 0,3 -3,0 z M 6,42 l 3,0 0,3 -3,0 z M 9,42 l 3,0 0,3 -3,0 z M 12,42 l 3,0 0,3 -3,0 z M 15,42 l 3,0 0,3 -3,0 z M 18,42 l 3,0 0,3 -3,0 z M 24,42 l 3,0 0,3 -3,0 z M 42,42 l 3,0 0,3 -3,0 z M 45,42 l 3,0 0,3 -3,0 z M 48,42 l 3,0 0,3 -3,0 z M 51,42 l 3,0 0,3 -3,0 z M 54,42 l 3,0 0,3 -3,0 z M 57,42 l 3,0 0,3 -3,0 z M 69,42 l 3,0 0,3 -3,0 z M 72,42 l 3,0 0,3 -3,0 z M 78,42 l 3,0 0,3 -3,0 z M 87,42 l 3,0 0,3 -3,0 z M 99,42 l 3,0 0,3 -3,0 z M 102,42 l 3,0 0,3 -3,0 z M 105,42 l 3,0 0,3 -3,0 z M 120,42 l 3,0 0,3 -3,0 z M 129,42 l 3,0 0,3 -3,0 z M 150,42 l 3,0 0,3 -3,0 z M 153,42 l 3,0 0,3 -3,0 z M 162,42 l 3,0 0,3 -3,0 z M 177,42 l 3,0 0,3 -3,0 z M 180,42 l 3,0 0,3 -3,0 z M 186,42 l 3,0 0,3 -3,0 z M 189,42 l 3,0 0,3 -3,0 z M 192,42 l 3,0 0,3 -3,0 z M 198,42 l 3,0 0,3 -3,0 z M 204,42 l 3,0 0,3 -3,0 z M 216,42 l 3,0 0,3 -3,0 z M 219,42 l 3,0 0,3 -3,0 z M 225,42 l 3,0 0,3 -3,0 z M 3,45 l 3,0 0,3 -3,0 z M 6,45 l 3,0 0,3 -3,0 z M 9,45 l 3,0 0,3 -3,0 z M 24,45 l 3,0 0,3 -3,0 z M 27,45 l 3,0 0,3 -3,0 z M 33,45 l 3,0 0,3 -3,0 z M 36,45 l 3,0 0,3 -3,0 z M 39,45 l 3,0 0,3 -3,0 z M 45,45 l 3,0 0,3 -3,0 z M 57,45 l 3,0 0,3 -3,0 z M 60,45 l 3,0 0,3 -3,0 z M 66,45 l 3,0 0,3 -3,0 z M 78,45 l 3,0 0,3 -3,0 z M 99,45 l 3,0 0,3 -3,0 z M 111,45 l 3,0 0,3 -3,0 z M 114,45 l 3,0 0,3 -3,0 z M 117,45 l 3,0 0,3 -3,0 z M 126,45 l 3,0 0,3 -3,0 z M 132,45 l 3,0 0,3 -3,0 z M 138,45 l 3,0 0,3 -3,0 z M 141,45 l 3,0 0,3 -3,0 z M 153,45 l 3,0 0,3 -3,0 z M 165,45 l 3,0 0,3 -3,0 z M 180,45 l 3,0 0,3 -3,0 z M 183,45 l 3,0 0,3 -3,0 z M 192,45 l 3,0 0,3 -3,0 z M 195,45 l 3,0 0,3 -3,0 z M 198,45 l 3,0 0,3 -3,0 z M 201,45 l 3,0 0,3 -3,0 z M 207,45 l 3,0 0,3 -3,0 z M 213,45 l 3,0 0,3 -3,0 z M 219,45 l 3,0 0,3 -3,0 z M 0,48 l 3,0 0,3 -3,0 z M 12,48 l 3,0 0,3 -3,0 z M 15,48 l 3,0 0,3 -3,0 z M 18,48 l 3,0 0,3 -3,0 z M 21,48 l 3,0 0,3 -3,0 z M 30,48 l 3,0 0,3 -3,0 z M 33,48 l 3,0 0,3 -3,0 z M 42,48 l 3,0 0,3 -3,0 z M 45,48 l 3,0 0,3 -3,0 z M 48,48 l 3,0 0,3 -3,0 z M 54,48 l 3,0 0,3 -3,0 z M 75,48 l 3,0 0,3 -3,0 z M 81,48 l 3,0 0,3 -3,0 z M 84,48 l 3,0 0,3 -3,0 z M 87,48 l 3,0 0,3 -3,0 z M 93,48 l 3,0 0,3 -3,0 z M 96,48 l 3,0 0,3 -3,0 z M 105,48 l 3,0 0,3 -3,0 z M 132,48 l 3,0 0,3 -3,0 z M 144,48 l 3,0 0,3 -3,0 z M 147,48 l 3,0 0,3 -3,0 z M 153,48 l 3,0 0,3 -3,0 z M 159,48 l 3,0 0,3 -3,0 z M 165,48 l 3,0 0,3 -3,0 z M 168,48 l 3,0 0,3 -3,0 z M 174,48 l 3,0 0,3 -3,0 z M 180,48 l 3,0 0,3 -3,0 z M 186,48 l 3,0 0,3 -3,0 z M 189,48 l 3,0 0,3 -3,0 z M 192,48 l 3,0 0,3 -3,0 z M 195,48 l 3,0 0,3 -3,0 z M 198,48 l 3,0 0,3 -3,0 z M 207,48 l 3,0 0,3 -3,0 z M 216,48 l 3,0 0,3 -3,0 z M 219,48 l 3,0 0,3 -3,0 z M 222,48 l 3,0 0,3 -3,0 z M 225,48 l 3,0 0,3 -3,0 z M 228,48 l 3,0 0,3 -3,0 z M 12,51 l 3,0 0,3 -3,0 z M 15,51 l 3,0 0,3 -3,0 z M 21,51 l 3,0 0,3 -3,0 z M 24,51 l 3,0 0,3 -3,0 z M 27,51 l 3,0 0,3 -3,0 z M 30,51 l 3,0 0,3 -3,0 z M 51,51 l 3,0 0,3 -3,0 z M 54,51 l 3,0 0,3 -3,0 z M 60,51 l 3,0 0,3 -3,0 z M 63,51 l 3,0 0,3 -3,0 z M 66,51 l 3,0 0,3 -3,0 z M 69,51 l 3,0 0,3 -3,0 z M 72,51 l 3,0 0,3 -3,0 z M 81,51 l 3,0 0,3 -3,0 z M 84,51 l 3,0 0,3 -3,0 z M 90,51 l 3,0 0,3 -3,0 z M 96,51 l 3,0 0,3 -3,0 z M 99,51 l 3,0 0,3 -3,0 z M 105,51 l 3,0 0,3 -3,0 z M 108,51 l 3,0 0,3 -3,0 z M 111,51 l 3,0 0,3 -3,0 z M 126,51 l 3,0 0,3 -3,0 z M 129,51 l 3,0 0,3 -3,0 z M 135,51 l 3,0 0,3 -3,0 z M 138,51 l 3,0 0,3 -3,0 z M 144,51 l 3,0 0,3 -3,0 z M 150,51 l 3,0 0,3 -3,0 z M 156,51 l 3,0 0,3 -3,0 z M 162,51 l 3,0 0,3 -3,0 z M 168,51 l 3,0 0,3 -3,0 z M 177,51 l 3,0 0,3 -3,0 z M 183,51 l 3,0 0,3 -3,0 z M 189,51 l 3,0 0,3 -3,0 z M 192,51 l 3,0 0,3 -3,0 z M 207,51 l 3,0 0,3 -3,0 z M 210,51 l 3,0 0,3 -3,0 z M 225,51 l 3,0 0,3 -3,0 z M 6,54 l 3,0 0,3 -3,0 z M 18,54 l 3,0 0,3 -3,0 z M 21,54 l 3,0 0,3 -3,0 z M 24,54 l 3,0 0,3 -3,0 z M 33,54 l 3,0 0,3 -3,0 z M 36,54 l 3,0 0,3 -3,0 z M 39,54 l 3,0 0,3 -3,0 z M 48,54 l 3,0 0,3 -3,0 z M 54,54 l 3,0 0,3 -3,0 z M 63,54 l 3,0 0,3 -3,0 z M 69,54 l 3,0 0,3 -3,0 z M 72,54 l 3,0 0,3 -3,0 z M 75,54 l 3,0 0,3 -3,0 z M 78,54 l 3,0 0,3 -3,0 z M 81,54 l 3,0 0,3 -3,0 z M 84,54 l 3,0 0,3 -3,0 z M 87,54 l 3,0 0,3 -3,0 z M 93,54 l 3,0 0,3 -3,0 z M 96,54 l 3,0 0,3 -3,0 z M 105,54 l 3,0 0,3 -3,0 z M 114,54 l 3,0 0,3 -3,0 z M 123,54 l 3,0 0,3 -3,0 z M 129,54 l 3,0 0,3 -3,0 z M 135,54 l 3,0 0,3 -3,0 z M 138,54 l 3,0 0,3 -3,0 z M 144,54 l 3,0 0,3 -3,0 z M 150,54 l 3,0 0,3 -3,0 z M 156,54 l 3,0 0,3 -3,0 z M 159,54 l 3,0 0,3 -3,0 z M 162,54 l 3,0 0,3 -3,0 z M 165,54 l 3,0 0,3 -3,0 z M 177,54 l 3,0 0,3 -3,0 z M 183,54 l 3,0 0,3 -3,0 z M 189,54 l 3,0 0,3 -3,0 z M 195,54 l 3,0 0,3 -3,0 z M 201,54 l 3,0 0,3 -3,0 z M 213,54 l 3,0 0,3 -3,0 z M 216,54 l 3,0 0,3 -3,0 z M 225,54 l 3,0 0,3 -3,0 z M 24,57 l 3,0 0,3 -3,0 z M 30,57 l 3,0 0,3 -3,0 z M 36,57 l 3,0 0,3 -3,0 z M 39,57 l 3,0 0,3 -3,0 z M 51,57 l 3,0 0,3 -3,0 z M 72,57 l 3,0 0,3 -3,0 z M 81,57 l 3,0 0,3 -3,0 z M 84,57 l 3,0 0,3 -3,0 z M 87,57 l 3,0 0,3 -3,0 z M 90,57 l 3,0 0,3 -3,0 z M 102,57 l 3,0 0,3 -3,0 z M 108,57 l 3,0 0,3 -3,0 z M 114,57 l 3,0 0,3 -3,0 z M 117,57 l 3,0 0,3 -3,0 z M 120,57 l 3,0 0,3 -3,0 z M 135,57 l 3,0 0,3 -3,0 z M 138,57 l 3,0 0,3 -3,0 z M 141,57 l 3,0 0,3 -3,0 z M 144,57 l 3,0 0,3 -3,0 z M 147,57 l 3,0 0,3 -3,0 z M 150,57 l 3,0 0,3 -3,0 z M 165,57 l 3,0 0,3 -3,0 z M 171,57 l 3,0 0,3 -3,0 z M 177,57 l 3,0 0,3 -3,0 z M 201,57 l 3,0 0,3 -3,0 z M 213,57 l 3,0 0,3 -3,0 z M 216,57 l 3,0 0,3 -3,0 z M 0,60 l 3,0 0,3 -3,0 z M 3,60 l 3,0 0,3 -3,0 z M 9,60 l 3,0 0,3 -3,0 z M 12,60 l 3,0 0,3 -3,0 z M 15,60 l 3,0 0,3 -3,0 z M 18,60 l 3,0 0,3 -3,0 z M 21,60 l 3,0 0,3 -3,0 z M 27,60 l 3,0 0,3 -3,0 z M 30,60 l 3,0 0,3 -3,0 z M 33,60 l 3,0 0,3 -3,0 z M 36,60 l 3,0 0,3 -3,0 z M 42,60 l 3,0 0,3 -3,0 z M 48,60 l 3,0 0,3 -3,0 z M 57,60 l 3,0 0,3 -3,0 z M 66,60 l 3,0 0,3 -3,0 z M 72,60 l 3,0 0,3 -3,0 z M 75,60 l 3,0 0,3 -3,0 z M 81,60 l 3,0 0,3 -3,0 z M 87,60 l 3,0 0,3 -3,0 z M 93,60 l 3,0 0,3 -3,0 z M 96,60 l 3,0 0,3 -3,0 z M 99,60 l 3,0 0,3 -3,0 z M 111,60 l 3,0 0,3 -3,0 z M 117,60 l 3,0 0,3 -3,0 z M 120,60 l 3,0 0,3 -3,0 z M 123,60 l 3,0 0,3 -3,0 z M 132,60 l 3,0 0,3 -3,0 z M 135,60 l 3,0 0,3 -3,0 z M 144,60 l 3,0 0,3 -3,0 z M 153,60 l 3,0 0,3 -3,0 z M 165,60 l 3,0 0,3 -3,0 z M 171,60 l 3,0 0,3 -3,0 z M 174,60 l 3,0 0,3 -3,0 z M 183,60 l 3,0 0,3 -3,0 z M 186,60 l 3,0 0,3 -3,0 z M 189,60 l 3,0 0,3 -3,0 z M 195,60 l 3,0 0,3 -3,0 z M 201,60 l 3,0 0,3 -3,0 z M 213,60 l 3,0 0,3 -3,0 z M 228,60 l 3,0 0,3 -3,0 z M 0,63 l 3,0 0,3 -3,0 z M 6,63 l 3,0 0,3 -3,0 z M 9,63 l 3,0 0,3 -3,0 z M 21,63 l 3,0 0,3 -3,0 z M 24,63 l 3,0 0,3 -3,0 z M 30,63 l 3,0 0,3 -3,0 z M 36,63 l 3,0 0,3 -3,0 z M 39,63 l 3,0 0,3 -3,0 z M 42,63 l 3,0 0,3 -3,0 z M 48,63 l 3,0 0,3 -3,0 z M 51,63 l 3,0 0,3 -3,0 z M 69,63 l 3,0 0,3 -3,0 z M 72,63 l 3,0 0,3 -3,0 z M 78,63 l 3,0 0,3 -3,0 z M 81,63 l 3,0 0,3 -3,0 z M 87,63 l 3,0 0,3 -3,0 z M 90,63 l 3,0 0,3 -3,0 z M 93,63 l 3,0 0,3 -3,0 z M 99,63 l 3,0 0,3 -3,0 z M 108,63 l 3,0 0,3 -3,0 z M 114,63 l 3,0 0,3 -3,0 z M 117,63 l 3,0 0,3 -3,0 z M 123,63 l 3,0 0,3 -3,0 z M 126,63 l 3,0 0,3 -3,0 z M 129,63 l 3,0 0,3 -3,0 z M 135,63 l 3,0 0,3 -3,0 z M 138,63 l 3,0 0,3 -3,0 z M 141,63 l 3,0 0,3 -3,0 z M 144,63 l 3,0 0,3 -3,0 z M 147,63 l 3,0 0,3 -3,0 z M 153,63 l 3,0 0,3 -3,0 z M 156,63 l 3,0 0,3 -3,0 z M 159,63 l 3,0 0,3 -3,0 z M 168,63 l 3,0 0,3 -3,0 z M 171,63 l 3,0 0,3 -3,0 z M 186,63 l 3,0 0,3 -3,0 z M 189,63 l 3,0 0,3 -3,0 z M 192,63 l 3,0 0,3 -3,0 z M 201,63 l 3,0 0,3 -3,0 z M 207,63 l 3,0 0,3 -3,0 z M 222,63 l 3,0 0,3 -3,0 z M 225,63 l 3,0 0,3 -3,0 z M 3,66 l 3,0 0,3 -3,0 z M 6,66 l 3,0 0,3 -3,0 z M 9,66 l 3,0 0,3 -3,0 z M 12,66 l 3,0 0,3 -3,0 z M 15,66 l 3,0 0,3 -3,0 z M 18,66 l 3,0 0,3 -3,0 z M 24,66 l 3,0 0,3 -3,0 z M 30,66 l 3,0 0,3 -3,0 z M 33,66 l 3,0 0,3 -3,0 z M 36,66 l 3,0 0,3 -3,0 z M 39,66 l 3,0 0,3 -3,0 z M 45,66 l 3,0 0,3 -3,0 z M 51,66 l 3,0 0,3 -3,0 z M 54,66 l 3,0 0,3 -3,0 z M 60,66 l 3,0 0,3 -3,0 z M 66,66 l 3,0 0,3 -3,0 z M 69,66 l 3,0 0,3 -3,0 z M 81,66 l 3,0 0,3 -3,0 z M 84,66 l 3,0 0,3 -3,0 z M 93,66 l 3,0 0,3 -3,0 z M 96,66 l 3,0 0,3 -3,0 z M 102,66 l 3,0 0,3 -3,0 z M 105,66 l 3,0 0,3 -3,0 z M 126,66 l 3,0 0,3 -3,0 z M 132,66 l 3,0 0,3 -3,0 z M 135,66 l 3,0 0,3 -3,0 z M 138,66 l 3,0 0,3 -3,0 z M 147,66 l 3,0 0,3 -3,0 z M 159,66 l 3,0 0,3 -3,0 z M 165,66 l 3,0 0,3 -3,0 z M 174,66 l 3,0 0,3 -3,0 z M 180,66 l 3,0 0,3 -3,0 z M 183,66 l 3,0 0,3 -3,0 z M 186,66 l 3,0 0,3 -3,0 z M 189,66 l 3,0 0,3 -3,0 z M 216,66 l 3,0 0,3 -3,0 z M 222,66 l 3,0 0,3 -3,0 z M 225,66 l 3,0 0,3 -3,0 z M 228,66 l 3,0 0,3 -3,0 z M 0,69 l 3,0 0,3 -3,0 z M 3,69 l 3,0 0,3 -3,0 z M 6,69 l 3,0 0,3 -3,0 z M 9,69 l 3,0 0,3 -3,0 z M 27,69 l 3,0 0,3 -3,0 z M 30,69 l 3,0 0,3 -3,0 z M 33,69 l 3,0 0,3 -3,0 z M 45,69 l 3,0 0,3 -3,0 z M 57,69 l 3,0 0,3 -3,0 z M 63,69 l 3,0 0,3 -3,0 z M 75,69 l 3,0 0,3 -3,0 z M 84,69 l 3,0 0,3 -3,0 z M 87,69 l 3,0 0,3 -3,0 z M 99,69 l 3,0 0,3 -3,0 z M 105,69 l 3,0 0,3 -3,0 z M 108,69 l 3,0 0,3 -3,0 z M 123,69 l 3,0 0,3 -3,0 z M 132,69 l 3,0 0,3 -3,0 z M 135,69 l 3,0 0,3 -3,0 z M 147,69 l 3,0 0,3 -3,0 z M 153,69 l 3,0 0,3 -3,0 z M 156,69 l 3,0 0,3 -3,0 z M 159,69 l 3,0 0,3 -3,0 z M 165,69 l 3,0 0,3 -3,0 z M 168,69 l 3,0 0,3 -3,0 z M 183,69 l 3,0 0,3 -3,0 z M 189,69 l 3,0 0,3 -3,0 z M 195,69 l 3,0 0,3 -3,0 z M 198,69 l 3,0 0,3 -3,0 z M 216,69 l 3,0 0,3 -3,0 z M 219,69 l 3,0 0,3 -3,0 z M 225,69 l 3,0 0,3 -3,0 z M 3,72 l 3,0 0,3 -3,0 z M 6,72 l 3,0 0,3 -3,0 z M 12,72 l 3,0 0,3 -3,0 z M 15,72 l 3,0 0,3 -3,0 z M 18,72 l 3,0 0,3 -3,0 z M 21,72 l 3,0 0,3 -3,0 z M 24,72 l 3,0 0,3 -3,0 z M 27,72 l 3,0 0,3 -3,0 z M 33,72 l 3,0 0,3 -3,0 z M 36,72 l 3,0 0,3 -3,0 z M 51,72 l 3,0 0,3 -3,0 z M 57,72 l 3,0 0,3 -3,0 z M 63,72 l 3,0 0,3 -3,0 z M 66,72 l 3,0 0,3 -3,0 z M 69,72 l 3,0 0,3 -3,0 z M 72,72 l 3,0 0,3 -3,0 z M 75,72 l 3,0 0,3 -3,0 z M 78,72 l 3,0 0,3 -3,0 z M 81,72 l 3,0 0,3 -3,0 z M 84,72 l 3,0 0,3 -3,0 z M 96,72 l 3,0 0,3 -3,0 z M 99,72 l 3,0 0,3 -3,0 z M 105,72 l 3,0 0,3 -3,0 z M 108,72 l 3,0 0,3 -3,0 z M 111,72 l 3,0 0,3 -3,0 z M 117,72 l 3,0 0,3 -3,0 z M 123,72 l 3,0 0,3 -3,0 z M 126,72 l 3,0 0,3 -3,0 z M 138,72 l 3,0 0,3 -3,0 z M 141,72 l 3,0 0,3 -3,0 z M 144,72 l 3,0 0,3 -3,0 z M 147,72 l 3,0 0,3 -3,0 z M 150,72 l 3,0 0,3 -3,0 z M 162,72 l 3,0 0,3 -3,0 z M 165,72 l 3,0 0,3 -3,0 z M 168,72 l 3,0 0,3 -3,0 z M 174,72 l 3,0 0,3 -3,0 z M 180,72 l 3,0 0,3 -3,0 z M 186,72 l 3,0 0,3 -3,0 z M 189,72 l 3,0 0,3 -3,0 z M 192,72 l 3,0 0,3 -3,0 z M 195,72 l 3,0 0,3 -3,0 z M 201,72 l 3,0 0,3 -3,0 z M 204,72 l 3,0 0,3 -3,0 z M 207,72 l 3,0 0,3 -3,0 z M 210,72 l 3,0 0,3 -3,0 z M 213,72 l 3,0 0,3 -3,0 z M 216,72 l 3,0 0,3 -3,0 z M 219,72 l 3,0 0,3 -3,0 z M 3,75 l 3,0 0,3 -3,0 z M 6,75 l 3,0 0,3 -3,0 z M 12,75 l 3,0 0,3 -3,0 z M 24,75 l 3,0 0,3 -3,0 z M 30,75 l 3,0 0,3 -3,0 z M 33,75 l 3,0 0,3 -3,0 z M 42,75 l 3,0 0,3 -3,0 z M 48,75 l 3,0 0,3 -3,0 z M 51,75 l 3,0 0,3 -3,0 z M 63,75 l 3,0 0,3 -3,0 z M 66,75 l 3,0 0,3 -3,0 z M 69,75 l 3,0 0,3 -3,0 z M 72,75 l 3,0 0,3 -3,0 z M 84,75 l 3,0 0,3 -3,0 z M 90,75 l 3,0 0,3 -3,0 z M 96,75 l 3,0 0,3 -3,0 z M 108,75 l 3,0 0,3 -3,0 z M 126,75 l 3,0 0,3 -3,0 z M 138,75 l 3,0 0,3 -3,0 z M 150,75 l 3,0 0,3 -3,0 z M 156,75 l 3,0 0,3 -3,0 z M 159,75 l 3,0 0,3 -3,0 z M 171,75 l 3,0 0,3 -3,0 z M 189,75 l 3,0 0,3 -3,0 z M 195,75 l 3,0 0,3 -3,0 z M 198,75 l 3,0 0,3 -3,0 z M 204,75 l 3,0 0,3 -3,0 z M 216,75 l 3,0 0,3 -3,0 z M 222,75 l 3,0 0,3 -3,0 z M 228,75 l 3,0 0,3 -3,0 z M 0,78 l 3,0 0,3 -3,0 z M 3,78 l 3,0 0,3 -3,0 z M 6,78 l 3,0 0,3 -3,0 z M 9,78 l 3,0 0,3 -3,0 z M 12,78 l 3,0 0,3 -3,0 z M 18,78 l 3,0 0,3 -3,0 z M 24,78 l 3,0 0,3 -3,0 z M 30,78 l 3,0 0,3 -3,0 z M 33,78 l 3,0 0,3 -3,0 z M 36,78 l 3,0 0,3 -3,0 z M 42,78 l 3,0 0,3 -3,0 z M 45,78 l 3,0 0,3 -3,0 z M 51,78 l 3,0 0,3 -3,0 z M 54,78 l 3,0 0,3 -3,0 z M 57,78 l 3,0 0,3 -3,0 z M 60,78 l 3,0 0,3 -3,0 z M 63,78 l 3,0 0,3 -3,0 z M 72,78 l 3,0 0,3 -3,0 z M 78,78 l 3,0 0,3 -3,0 z M 84,78 l 3,0 0,3 -3,0 z M 90,78 l 3,0 0,3 -3,0 z M 93,78 l 3,0 0,3 -3,0 z M 96,78 l 3,0 0,3 -3,0 z M 99,78 l 3,0 0,3 -3,0 z M 105,78 l 3,0 0,3 -3,0 z M 108,78 l 3,0 0,3 -3,0 z M 111,78 l 3,0 0,3 -3,0 z M 117,78 l 3,0 0,3 -3,0 z M 129,78 l 3,0 0,3 -3,0 z M 132,78 l 3,0 0,3 -3,0 z M 138,78 l 3,0 0,3 -3,0 z M 144,78 l 3,0 0,3 -3,0 z M 150,78 l 3,0 0,3 -3,0 z M 159,78 l 3,0 0,3 -3,0 z M 165,78 l 3,0 0,3 -3,0 z M 171,78 l 3,0 0,3 -3,0 z M 174,78 l 3,0 0,3 -3,0 z M 177,78 l 3,0 0,3 -3,0 z M 186,78 l 3,0 0,3 -3,0 z M 198,78 l 3,0 0,3 -3,0 z M 201,78 l 3,0 0,3 -3,0 z M 204,78 l 3,0 0,3 -3,0 z M 210,78 l 3,0 0,3 -3,0 z M 216,78 l 3,0 0,3 -3,0 z M 222,78 l 3,0 0,3 -3,0 z M 228,78 l 3,0 0,3 -3,0 z M 0,81 l 3,0 0,3 -3,0 z M 3,81 l 3,0 0,3 -3,0 z M 12,81 l 3,0 0,3 -3,0 z M 24,81 l 3,0 0,3 -3,0 z M 30,81 l 3,0 0,3 -3,0 z M 36,81 l 3,0 0,3 -3,0 z M 42,81 l 3,0 0,3 -3,0 z M 45,81 l 3,0 0,3 -3,0 z M 48,81 l 3,0 0,3 -3,0 z M 57,81 l 3,0 0,3 -3,0 z M 66,81 l 3,0 0,3 -3,0 z M 72,81 l 3,0 0,3 -3,0 z M 84,81 l 3,0 0,3 -3,0 z M 87,81 l 3,0 0,3 -3,0 z M 96,81 l 3,0 0,3 -3,0 z M 102,81 l 3,0 0,3 -3,0 z M 105,81 l 3,0 0,3 -3,0 z M 111,81 l 3,0 0,3 -3,0 z M 117,81 l 3,0 0,3 -3,0 z M 132,81 l 3,0 0,3 -3,0 z M 135,81 l 3,0 0,3 -3,0 z M 138,81 l 3,0 0,3 -3,0 z M 150,81 l 3,0 0,3 -3,0 z M 153,81 l 3,0 0,3 -3,0 z M 159,81 l 3,0 0,3 -3,0 z M 162,81 l 3,0 0,3 -3,0 z M 165,81 l 3,0 0,3 -3,0 z M 180,81 l 3,0 0,3 -3,0 z M 183,81 l 3,0 0,3 -3,0 z M 192,81 l 3,0 0,3 -3,0 z M 195,81 l 3,0 0,3 -3,0 z M 198,81 l 3,0 0,3 -3,0 z M 204,81 l 3,0 0,3 -3,0 z M 216,81 l 3,0 0,3 -3,0 z M 222,81 l 3,0 0,3 -3,0 z M 228,81 l 3,0 0,3 -3,0 z M 0,84 l 3,0 0,3 -3,0 z M 9,84 l 3,0 0,3 -3,0 z M 12,84 l 3,0 0,3 -3,0 z M 15,84 l 3,0 0,3 -3,0 z M 18,84 l 3,0 0,3 -3,0 z M 21,84 l 3,0 0,3 -3,0 z M 24,84 l 3,0 0,3 -3,0 z M 27,84 l 3,0 0,3 -3,0 z M 30,84 l 3,0 0,3 -3,0 z M 36,84 l 3,0 0,3 -3,0 z M 39,84 l 3,0 0,3 -3,0 z M 42,84 l 3,0 0,3 -3,0 z M 48,84 l 3,0 0,3 -3,0 z M 57,84 l 3,0 0,3 -3,0 z M 60,84 l 3,0 0,3 -3,0 z M 63,84 l 3,0 0,3 -3,0 z M 66,84 l 3,0 0,3 -3,0 z M 69,84 l 3,0 0,3 -3,0 z M 72,84 l 3,0 0,3 -3,0 z M 75,84 l 3,0 0,3 -3,0 z M 78,84 l 3,0 0,3 -3,0 z M 81,84 l 3,0 0,3 -3,0 z M 84,84 l 3,0 0,3 -3,0 z M 90,84 l 3,0 0,3 -3,0 z M 93,84 l 3,0 0,3 -3,0 z M 111,84 l 3,0 0,3 -3,0 z M 114,84 l 3,0 0,3 -3,0 z M 117,84 l 3,0 0,3 -3,0 z M 120,84 l 3,0 0,3 -3,0 z M 123,84 l 3,0 0,3 -3,0 z M 126,84 l 3,0 0,3 -3,0 z M 129,84 l 3,0 0,3 -3,0 z M 138,84 l 3,0 0,3 -3,0 z M 141,84 l 3,0 0,3 -3,0 z M 144,84 l 3,0 0,3 -3,0 z M 147,84 l 3,0 0,3 -3,0 z M 150,84 l 3,0 0,3 -3,0 z M 156,84 l 3,0 0,3 -3,0 z M 171,84 l 3,0 0,3 -3,0 z M 177,84 l 3,0 0,3 -3,0 z M 183,84 l 3,0 0,3 -3,0 z M 186,84 l 3,0 0,3 -3,0 z M 204,84 l 3,0 0,3 -3,0 z M 207,84 l 3,0 0,3 -3,0 z M 210,84 l 3,0 0,3 -3,0 z M 213,84 l 3,0 0,3 -3,0 z M 216,84 l 3,0 0,3 -3,0 z M 3,87 l 3,0 0,3 -3,0 z M 12,87 l 3,0 0,3 -3,0 z M 15,87 l 3,0 0,3 -3,0 z M 21,87 l 3,0 0,3 -3,0 z M 24,87 l 3,0 0,3 -3,0 z M 30,87 l 3,0 0,3 -3,0 z M 39,87 l 3,0 0,3 -3,0 z M 42,87 l 3,0 0,3 -3,0 z M 48,87 l 3,0 0,3 -3,0 z M 51,87 l 3,0 0,3 -3,0 z M 54,87 l 3,0 0,3 -3,0 z M 60,87 l 3,0 0,3 -3,0 z M 66,87 l 3,0 0,3 -3,0 z M 69,87 l 3,0 0,3 -3,0 z M 72,87 l 3,0 0,3 -3,0 z M 81,87 l 3,0 0,3 -3,0 z M 84,87 l 3,0 0,3 -3,0 z M 93,87 l 3,0 0,3 -3,0 z M 96,87 l 3,0 0,3 -3,0 z M 99,87 l 3,0 0,3 -3,0 z M 105,87 l 3,0 0,3 -3,0 z M 111,87 l 3,0 0,3 -3,0 z M 129,87 l 3,0 0,3 -3,0 z M 132,87 l 3,0 0,3 -3,0 z M 135,87 l 3,0 0,3 -3,0 z M 141,87 l 3,0 0,3 -3,0 z M 144,87 l 3,0 0,3 -3,0 z M 150,87 l 3,0 0,3 -3,0 z M 153,87 l 3,0 0,3 -3,0 z M 156,87 l 3,0 0,3 -3,0 z M 168,87 l 3,0 0,3 -3,0 z M 171,87 l 3,0 0,3 -3,0 z M 174,87 l 3,0 0,3 -3,0 z M 177,87 l 3,0 0,3 -3,0 z M 180,87 l 3,0 0,3 -3,0 z M 189,87 l 3,0 0,3 -3,0 z M 192,87 l 3,0 0,3 -3,0 z M 198,87 l 3,0 0,3 -3,0 z M 204,87 l 3,0 0,3 -3,0 z M 210,87 l 3,0 0,3 -3,0 z M 216,87 l 3,0 0,3 -3,0 z M 219,87 l 3,0 0,3 -3,0 z M 225,87 l 3,0 0,3 -3,0 z M 228,87 l 3,0 0,3 -3,0 z M 9,90 l 3,0 0,3 -3,0 z M 12,90 l 3,0 0,3 -3,0 z M 18,90 l 3,0 0,3 -3,0 z M 21,90 l 3,0 0,3 -3,0 z M 27,90 l 3,0 0,3 -3,0 z M 39,90 l 3,0 0,3 -3,0 z M 48,90 l 3,0 0,3 -3,0 z M 54,90 l 3,0 0,3 -3,0 z M 57,90 l 3,0 0,3 -3,0 z M 60,90 l 3,0 0,3 -3,0 z M 69,90 l 3,0 0,3 -3,0 z M 72,90 l 3,0 0,3 -3,0 z M 75,90 l 3,0 0,3 -3,0 z M 93,90 l 3,0 0,3 -3,0 z M 99,90 l 3,0 0,3 -3,0 z M 102,90 l 3,0 0,3 -3,0 z M 108,90 l 3,0 0,3 -3,0 z M 114,90 l 3,0 0,3 -3,0 z M 117,90 l 3,0 0,3 -3,0 z M 120,90 l 3,0 0,3 -3,0 z M 126,90 l 3,0 0,3 -3,0 z M 129,90 l 3,0 0,3 -3,0 z M 138,90 l 3,0 0,3 -3,0 z M 141,90 l 3,0 0,3 -3,0 z M 150,90 l 3,0 0,3 -3,0 z M 165,90 l 3,0 0,3 -3,0 z M 180,90 l 3,0 0,3 -3,0 z M 183,90 l 3,0 0,3 -3,0 z M 195,90 l 3,0 0,3 -3,0 z M 198,90 l 3,0 0,3 -3,0 z M 204,90 l 3,0 0,3 -3,0 z M 207,90 l 3,0 0,3 -3,0 z M 210,90 l 3,0 0,3 -3,0 z M 213,90 l 3,0 0,3 -3,0 z M 216,90 l 3,0 0,3 -3,0 z M 6,93 l 3,0 0,3 -3,0 z M 9,93 l 3,0 0,3 -3,0 z M 12,93 l 3,0 0,3 -3,0 z M 24,93 l 3,0 0,3 -3,0 z M 27,93 l 3,0 0,3 -3,0 z M 33,93 l 3,0 0,3 -3,0 z M 36,93 l 3,0 0,3 -3,0 z M 54,93 l 3,0 0,3 -3,0 z M 63,93 l 3,0 0,3 -3,0 z M 69,93 l 3,0 0,3 -3,0 z M 72,93 l 3,0 0,3 -3,0 z M 75,93 l 3,0 0,3 -3,0 z M 81,93 l 3,0 0,3 -3,0 z M 84,93 l 3,0 0,3 -3,0 z M 87,93 l 3,0 0,3 -3,0 z M 93,93 l 3,0 0,3 -3,0 z M 102,93 l 3,0 0,3 -3,0 z M 105,93 l 3,0 0,3 -3,0 z M 108,93 l 3,0 0,3 -3,0 z M 117,93 l 3,0 0,3 -3,0 z M 120,93 l 3,0 0,3 -3,0 z M 123,93 l 3,0 0,3 -3,0 z M 126,93 l 3,0 0,3 -3,0 z M 129,93 l 3,0 0,3 -3,0 z M 132,93 l 3,0 0,3 -3,0 z M 144,93 l 3,0 0,3 -3,0 z M 147,93 l 3,0 0,3 -3,0 z M 150,93 l 3,0 0,3 -3,0 z M 153,93 l 3,0 0,3 -3,0 z M 159,93 l 3,0 0,3 -3,0 z M 162,93 l 3,0 0,3 -3,0 z M 168,93 l 3,0 0,3 -3,0 z M 174,93 l 3,0 0,3 -3,0 z M 180,93 l 3,0 0,3 -3,0 z M 183,93 l 3,0 0,3 -3,0 z M 186,93 l 3,0 0,3 -3,0 z M 189,93 l 3,0 0,3 -3,0 z M 198,93 l 3,0 0,3 -3,0 z M 204,93 l 3,0 0,3 -3,0 z M 207,93 l 3,0 0,3 -3,0 z M 210,93 l 3,0 0,3 -3,0 z M 213,93 l 3,0 0,3 -3,0 z M 18,96 l 3,0 0,3 -3,0 z M 27,96 l 3,0 0,3 -3,0 z M 30,96 l 3,0 0,3 -3,0 z M 33,96 l 3,0 0,3 -3,0 z M 36,96 l 3,0 0,3 -3,0 z M 42,96 l 3,0 0,3 -3,0 z M 45,96 l 3,0 0,3 -3,0 z M 57,96 l 3,0 0,3 -3,0 z M 60,96 l 3,0 0,3 -3,0 z M 69,96 l 3,0 0,3 -3,0 z M 75,96 l 3,0 0,3 -3,0 z M 78,96 l 3,0 0,3 -3,0 z M 81,96 l 3,0 0,3 -3,0 z M 84,96 l 3,0 0,3 -3,0 z M 93,96 l 3,0 0,3 -3,0 z M 99,96 l 3,0 0,3 -3,0 z M 102,96 l 3,0 0,3 -3,0 z M 108,96 l 3,0 0,3 -3,0 z M 111,96 l 3,0 0,3 -3,0 z M 117,96 l 3,0 0,3 -3,0 z M 123,96 l 3,0 0,3 -3,0 z M 135,96 l 3,0 0,3 -3,0 z M 138,96 l 3,0 0,3 -3,0 z M 147,96 l 3,0 0,3 -3,0 z M 156,96 l 3,0 0,3 -3,0 z M 162,96 l 3,0 0,3 -3,0 z M 174,96 l 3,0 0,3 -3,0 z M 177,96 l 3,0 0,3 -3,0 z M 180,96 l 3,0 0,3 -3,0 z M 186,96 l 3,0 0,3 -3,0 z M 189,96 l 3,0 0,3 -3,0 z M 195,96 l 3,0 0,3 -3,0 z M 207,96 l 3,0 0,3 -3,0 z M 210,96 l 3,0 0,3 -3,0 z M 213,96 l 3,0 0,3 -3,0 z M 216,96 l 3,0 0,3 -3,0 z M 222,96 l 3,0 0,3 -3,0 z M 228,96 l 3,0 0,3 -3,0 z M 0,99 l 3,0 0,3 -3,0 z M 3,99 l 3,0 0,3 -3,0 z M 6,99 l 3,0 0,3 -3,0 z M 9,99 l 3,0 0,3 -3,0 z M 15,99 l 3,0 0,3 -3,0 z M 24,99 l 3,0 0,3 -3,0 z M 27,99 l 3,0 0,3 -3,0 z M 30,99 l 3,0 0,3 -3,0 z M 33,99 l 3,0 0,3 -3,0 z M 42,99 l 3,0 0,3 -3,0 z M 48,99 l 3,0 0,3 -3,0 z M 54,99 l 3,0 0,3 -3,0 z M 60,99 l 3,0 0,3 -3,0 z M 75,99 l 3,0 0,3 -3,0 z M 81,99 l 3,0 0,3 -3,0 z M 84,99 l 3,0 0,3 -3,0 z M 87,99 l 3,0 0,3 -3,0 z M 93,99 l 3,0 0,3 -3,0 z M 96,99 l 3,0 0,3 -3,0 z M 99,99 l 3,0 0,3 -3,0 z M 102,99 l 3,0 0,3 -3,0 z M 105,99 l 3,0 0,3 -3,0 z M 108,99 l 3,0 0,3 -3,0 z M 111,99 l 3,0 0,3 -3,0 z M 123,99 l 3,0 0,3 -3,0 z M 126,99 l 3,0 0,3 -3,0 z M 132,99 l 3,0 0,3 -3,0 z M 135,99 l 3,0 0,3 -3,0 z M 138,99 l 3,0 0,3 -3,0 z M 141,99 l 3,0 0,3 -3,0 z M 144,99 l 3,0 0,3 -3,0 z M 153,99 l 3,0 0,3 -3,0 z M 159,99 l 3,0 0,3 -3,0 z M 162,99 l 3,0 0,3 -3,0 z M 165,99 l 3,0 0,3 -3,0 z M 171,99 l 3,0 0,3 -3,0 z M 177,99 l 3,0 0,3 -3,0 z M 186,99 l 3,0 0,3 -3,0 z M 189,99 l 3,0 0,3 -3,0 z M 192,99 l 3,0 0,3 -3,0 z M 195,99 l 3,0 0,3 -3,0 z M 201,99 l 3,0 0,3 -3,0 z M 204,99 l 3,0 0,3 -3,0 z M 207,99 l 3,0 0,3 -3,0 z M 210,99 l 3,0 0,3 -3,0 z M 225,99 l 3,0 0,3 -3,0 z M 228,99 l 3,0 0,3 -3,0 z M 0,102 l 3,0 0,3 -3,0 z M 6,102 l 3,0 0,3 -3,0 z M 18,102 l 3,0 0,3 -3,0 z M 21,102 l 3,0 0,3 -3,0 z M 24,102 l 3,0 0,3 -3,0 z M 33,102 l 3,0 0,3 -3,0 z M 48,102 l 3,0 0,3 -3,0 z M 51,102 l 3,0 0,3 -3,0 z M 63,102 l 3,0 0,3 -3,0 z M 69,102 l 3,0 0,3 -3,0 z M 78,102 l 3,0 0,3 -3,0 z M 84,102 l 3,0 0,3 -3,0 z M 90,102 l 3,0 0,3 -3,0 z M 93,102 l 3,0 0,3 -3,0 z M 96,102 l 3,0 0,3 -3,0 z M 99,102 l 3,0 0,3 -3,0 z M 108,102 l 3,0 0,3 -3,0 z M 120,102 l 3,0 0,3 -3,0 z M 123,102 l 3,0 0,3 -3,0 z M 129,102 l 3,0 0,3 -3,0 z M 147,102 l 3,0 0,3 -3,0 z M 150,102 l 3,0 0,3 -3,0 z M 159,102 l 3,0 0,3 -3,0 z M 162,102 l 3,0 0,3 -3,0 z M 168,102 l 3,0 0,3 -3,0 z M 171,102 l 3,0 0,3 -3,0 z M 174,102 l 3,0 0,3 -3,0 z M 177,102 l 3,0 0,3 -3,0 z M 180,102 l 3,0 0,3 -3,0 z M 186,102 l 3,0 0,3 -3,0 z M 189,102 l 3,0 0,3 -3,0 z M 192,102 l 3,0 0,3 -3,0 z M 195,102 l 3,0 0,3 -3,0 z M 198,102 l 3,0 0,3 -3,0 z M 204,102 l 3,0 0,3 -3,0 z M 213,102 l 3,0 0,3 -3,0 z M 219,102 l 3,0 0,3 -3,0 z M 228,102 l 3,0 0,3 -3,0 z M 9,105 l 3,0 0,3 -3,0 z M 21,105 l 3,0 0,3 -3,0 z M 33,105 l 3,0 0,3 -3,0 z M 42,105 l 3,0 0,3 -3,0 z M 45,105 l 3,0 0,3 -3,0 z M 63,105 l 3,0 0,3 -3,0 z M 66,105 l 3,0 0,3 -3,0 z M 72,105 l 3,0 0,3 -3,0 z M 75,105 l 3,0 0,3 -3,0 z M 81,105 l 3,0 0,3 -3,0 z M 84,105 l 3,0 0,3 -3,0 z M 87,105 l 3,0 0,3 -3,0 z M 90,105 l 3,0 0,3 -3,0 z M 96,105 l 3,0 0,3 -3,0 z M 102,105 l 3,0 0,3 -3,0 z M 111,105 l 3,0 0,3 -3,0 z M 114,105 l 3,0 0,3 -3,0 z M 117,105 l 3,0 0,3 -3,0 z M 123,105 l 3,0 0,3 -3,0 z M 126,105 l 3,0 0,3 -3,0 z M 132,105 l 3,0 0,3 -3,0 z M 135,105 l 3,0 0,3 -3,0 z M 144,105 l 3,0 0,3 -3,0 z M 162,105 l 3,0 0,3 -3,0 z M 183,105 l 3,0 0,3 -3,0 z M 189,105 l 3,0 0,3 -3,0 z M 192,105 l 3,0 0,3 -3,0 z M 198,105 l 3,0 0,3 -3,0 z M 204,105 l 3,0 0,3 -3,0 z M 207,105 l 3,0 0,3 -3,0 z M 216,105 l 3,0 0,3 -3,0 z M 219,105 l 3,0 0,3 -3,0 z M 228,105 l 3,0 0,3 -3,0 z M 0,108 l 3,0 0,3 -3,0 z M 12,108 l 3,0 0,3 -3,0 z M 15,108 l 3,0 0,3 -3,0 z M 18,108 l 3,0 0,3 -3,0 z M 21,108 l 3,0 0,3 -3,0 z M 24,108 l 3,0 0,3 -3,0 z M 27,108 l 3,0 0,3 -3,0 z M 30,108 l 3,0 0,3 -3,0 z M 42,108 l 3,0 0,3 -3,0 z M 45,108 l 3,0 0,3 -3,0 z M 54,108 l 3,0 0,3 -3,0 z M 66,108 l 3,0 0,3 -3,0 z M 72,108 l 3,0 0,3 -3,0 z M 78,108 l 3,0 0,3 -3,0 z M 96,108 l 3,0 0,3 -3,0 z M 129,108 l 3,0 0,3 -3,0 z M 132,108 l 3,0 0,3 -3,0 z M 135,108 l 3,0 0,3 -3,0 z M 141,108 l 3,0 0,3 -3,0 z M 156,108 l 3,0 0,3 -3,0 z M 159,108 l 3,0 0,3 -3,0 z M 171,108 l 3,0 0,3 -3,0 z M 174,108 l 3,0 0,3 -3,0 z M 177,108 l 3,0 0,3 -3,0 z M 180,108 l 3,0 0,3 -3,0 z M 186,108 l 3,0 0,3 -3,0 z M 189,108 l 3,0 0,3 -3,0 z M 192,108 l 3,0 0,3 -3,0 z M 198,108 l 3,0 0,3 -3,0 z M 201,108 l 3,0 0,3 -3,0 z M 207,108 l 3,0 0,3 -3,0 z M 225,108 l 3,0 0,3 -3,0 z M 228,108 l 3,0 0,3 -3,0 z M 0,111 l 3,0 0,3 -3,0 z M 12,111 l 3,0 0,3 -3,0 z M 21,111 l 3,0 0,3 -3,0 z M 27,111 l 3,0 0,3 -3,0 z M 30,111 l 3,0 0,3 -3,0 z M 33,111 l 3,0 0,3 -3,0 z M 39,111 l 3,0 0,3 -3,0 z M 42,111 l 3,0 0,3 -3,0 z M 51,111 l 3,0 0,3 -3,0 z M 54,111 l 3,0 0,3 -3,0 z M 60,111 l 3,0 0,3 -3,0 z M 66,111 l 3,0 0,3 -3,0 z M 69,111 l 3,0 0,3 -3,0 z M 75,111 l 3,0 0,3 -3,0 z M 90,111 l 3,0 0,3 -3,0 z M 93,111 l 3,0 0,3 -3,0 z M 96,111 l 3,0 0,3 -3,0 z M 102,111 l 3,0 0,3 -3,0 z M 108,111 l 3,0 0,3 -3,0 z M 114,111 l 3,0 0,3 -3,0 z M 117,111 l 3,0 0,3 -3,0 z M 120,111 l 3,0 0,3 -3,0 z M 123,111 l 3,0 0,3 -3,0 z M 126,111 l 3,0 0,3 -3,0 z M 132,111 l 3,0 0,3 -3,0 z M 135,111 l 3,0 0,3 -3,0 z M 141,111 l 3,0 0,3 -3,0 z M 144,111 l 3,0 0,3 -3,0 z M 147,111 l 3,0 0,3 -3,0 z M 150,111 l 3,0 0,3 -3,0 z M 153,111 l 3,0 0,3 -3,0 z M 156,111 l 3,0 0,3 -3,0 z M 162,111 l 3,0 0,3 -3,0 z M 165,111 l 3,0 0,3 -3,0 z M 168,111 l 3,0 0,3 -3,0 z M 174,111 l 3,0 0,3 -3,0 z M 201,111 l 3,0 0,3 -3,0 z M 207,111 l 3,0 0,3 -3,0 z M 210,111 l 3,0 0,3 -3,0 z M 213,111 l 3,0 0,3 -3,0 z M 216,111 l 3,0 0,3 -3,0 z M 225,111 l 3,0 0,3 -3,0 z M 0,114 l 3,0 0,3 -3,0 z M 6,114 l 3,0 0,3 -3,0 z M 9,114 l 3,0 0,3 -3,0 z M 15,114 l 3,0 0,3 -3,0 z M 18,114 l 3,0 0,3 -3,0 z M 30,114 l 3,0 0,3 -3,0 z M 36,114 l 3,0 0,3 -3,0 z M 39,114 l 3,0 0,3 -3,0 z M 45,114 l 3,0 0,3 -3,0 z M 51,114 l 3,0 0,3 -3,0 z M 54,114 l 3,0 0,3 -3,0 z M 63,114 l 3,0 0,3 -3,0 z M 78,114 l 3,0 0,3 -3,0 z M 81,114 l 3,0 0,3 -3,0 z M 87,114 l 3,0 0,3 -3,0 z M 90,114 l 3,0 0,3 -3,0 z M 93,114 l 3,0 0,3 -3,0 z M 99,114 l 3,0 0,3 -3,0 z M 105,114 l 3,0 0,3 -3,0 z M 114,114 l 3,0 0,3 -3,0 z M 120,114 l 3,0 0,3 -3,0 z M 123,114 l 3,0 0,3 -3,0 z M 126,114 l 3,0 0,3 -3,0 z M 129,114 l 3,0 0,3 -3,0 z M 141,114 l 3,0 0,3 -3,0 z M 144,114 l 3,0 0,3 -3,0 z M 150,114 l 3,0 0,3 -3,0 z M 153,114 l 3,0 0,3 -3,0 z M 174,114 l 3,0 0,3 -3,0 z M 180,114 l 3,0 0,3 -3,0 z M 186,114 l 3,0 0,3 -3,0 z M 195,114 l 3,0 0,3 -3,0 z M 201,114 l 3,0 0,3 -3,0 z M 204,114 l 3,0 0,3 -3,0 z M 219,114 l 3,0 0,3 -3,0 z M 225,114 l 3,0 0,3 -3,0 z M 228,114 l 3,0 0,3 -3,0 z M 12,117 l 3,0 0,3 -3,0 z M 15,117 l 3,0 0,3 -3,0 z M 24,117 l 3,0 0,3 -3,0 z M 33,117 l 3,0 0,3 -3,0 z M 36,117 l 3,0 0,3 -3,0 z M 45,117 l 3,0 0,3 -3,0 z M 48,117 l 3,0 0,3 -3,0 z M 51,117 l 3,0 0,3 -3,0 z M 63,117 l 3,0 0,3 -3,0 z M 69,117 l 3,0 0,3 -3,0 z M 75,117 l 3,0 0,3 -3,0 z M 78,117 l 3,0 0,3 -3,0 z M 93,117 l 3,0 0,3 -3,0 z M 102,117 l 3,0 0,3 -3,0 z M 108,117 l 3,0 0,3 -3,0 z M 111,117 l 3,0 0,3 -3,0 z M 114,117 l 3,0 0,3 -3,0 z M 117,117 l 3,0 0,3 -3,0 z M 129,117 l 3,0 0,3 -3,0 z M 132,117 l 3,0 0,3 -3,0 z M 135,117 l 3,0 0,3 -3,0 z M 138,117 l 3,0 0,3 -3,0 z M 144,117 l 3,0 0,3 -3,0 z M 156,117 l 3,0 0,3 -3,0 z M 159,117 l 3,0 0,3 -3,0 z M 165,117 l 3,0 0,3 -3,0 z M 168,117 l 3,0 0,3 -3,0 z M 177,117 l 3,0 0,3 -3,0 z M 183,117 l 3,0 0,3 -3,0 z M 186,117 l 3,0 0,3 -3,0 z M 192,117 l 3,0 0,3 -3,0 z M 195,117 l 3,0 0,3 -3,0 z M 207,117 l 3,0 0,3 -3,0 z M 210,117 l 3,0 0,3 -3,0 z M 216,117 l 3,0 0,3 -3,0 z M 219,117 l 3,0 0,3 -3,0 z M 225,117 l 3,0 0,3 -3,0 z M 228,117 l 3,0 0,3 -3,0 z M 3,120 l 3,0 0,3 -3,0 z M 9,120 l 3,0 0,3 -3,0 z M 18,120 l 3,0 0,3 -3,0 z M 21,120 l 3,0 0,3 -3,0 z M 24,120 l 3,0 0,3 -3,0 z M 27,120 l 3,0 0,3 -3,0 z M 36,120 l 3,0 0,3 -3,0 z M 42,120 l 3,0 0,3 -3,0 z M 54,120 l 3,0 0,3 -3,0 z M 60,120 l 3,0 0,3 -3,0 z M 63,120 l 3,0 0,3 -3,0 z M 66,120 l 3,0 0,3 -3,0 z M 75,120 l 3,0 0,3 -3,0 z M 81,120 l 3,0 0,3 -3,0 z M 99,120 l 3,0 0,3 -3,0 z M 102,120 l 3,0 0,3 -3,0 z M 108,120 l 3,0 0,3 -3,0 z M 111,120 l 3,0 0,3 -3,0 z M 129,120 l 3,0 0,3 -3,0 z M 135,120 l 3,0 0,3 -3,0 z M 144,120 l 3,0 0,3 -3,0 z M 147,120 l 3,0 0,3 -3,0 z M 153,120 l 3,0 0,3 -3,0 z M 156,120 l 3,0 0,3 -3,0 z M 165,120 l 3,0 0,3 -3,0 z M 168,120 l 3,0 0,3 -3,0 z M 171,120 l 3,0 0,3 -3,0 z M 174,120 l 3,0 0,3 -3,0 z M 177,120 l 3,0 0,3 -3,0 z M 183,120 l 3,0 0,3 -3,0 z M 186,120 l 3,0 0,3 -3,0 z M 189,120 l 3,0 0,3 -3,0 z M 195,120 l 3,0 0,3 -3,0 z M 198,120 l 3,0 0,3 -3,0 z M 201,120 l 3,0 0,3 -3,0 z M 207,120 l 3,0 0,3 -3,0 z M 225,120 l 3,0 0,3 -3,0 z M 228,120 l 3,0 0,3 -3,0 z M 30,123 l 3,0 0,3 -3,0 z M 36,123 l 3,0 0,3 -3,0 z M 39,123 l 3,0 0,3 -3,0 z M 42,123 l 3,0 0,3 -3,0 z M 45,123 l 3,0 0,3 -3,0 z M 48,123 l 3,0 0,3 -3,0 z M 51,123 l 3,0 0,3 -3,0 z M 57,123 l 3,0 0,3 -3,0 z M 63,123 l 3,0 0,3 -3,0 z M 69,123 l 3,0 0,3 -3,0 z M 81,123 l 3,0 0,3 -3,0 z M 87,123 l 3,0 0,3 -3,0 z M 90,123 l 3,0 0,3 -3,0 z M 93,123 l 3,0 0,3 -3,0 z M 102,123 l 3,0 0,3 -3,0 z M 111,123 l 3,0 0,3 -3,0 z M 114,123 l 3,0 0,3 -3,0 z M 117,123 l 3,0 0,3 -3,0 z M 120,123 l 3,0 0,3 -3,0 z M 123,123 l 3,0 0,3 -3,0 z M 126,123 l 3,0 0,3 -3,0 z M 132,123 l 3,0 0,3 -3,0 z M 144,123 l 3,0 0,3 -3,0 z M 150,123 l 3,0 0,3 -3,0 z M 153,123 l 3,0 0,3 -3,0 z M 156,123 l 3,0 0,3 -3,0 z M 168,123 l 3,0 0,3 -3,0 z M 171,123 l 3,0 0,3 -3,0 z M 183,123 l 3,0 0,3 -3,0 z M 189,123 l 3,0 0,3 -3,0 z M 192,123 l 3,0 0,3 -3,0 z M 195,123 l 3,0 0,3 -3,0 z M 198,123 l 3,0 0,3 -3,0 z M 201,123 l 3,0 0,3 -3,0 z M 210,123 l 3,0 0,3 -3,0 z M 225,123 l 3,0 0,3 -3,0 z M 228,123 l 3,0 0,3 -3,0 z M 0,126 l 3,0 0,3 -3,0 z M 3,126 l 3,0 0,3 -3,0 z M 6,126 l 3,0 0,3 -3,0 z M 18,126 l 3,0 0,3 -3,0 z M 21,126 l 3,0 0,3 -3,0 z M 24,126 l 3,0 0,3 -3,0 z M 27,126 l 3,0 0,3 -3,0 z M 33,126 l 3,0 0,3 -3,0 z M 36,126 l 3,0 0,3 -3,0 z M 39,126 l 3,0 0,3 -3,0 z M 42,126 l 3,0 0,3 -3,0 z M 48,126 l 3,0 0,3 -3,0 z M 54,126 l 3,0 0,3 -3,0 z M 57,126 l 3,0 0,3 -3,0 z M 60,126 l 3,0 0,3 -3,0 z M 63,126 l 3,0 0,3 -3,0 z M 66,126 l 3,0 0,3 -3,0 z M 69,126 l 3,0 0,3 -3,0 z M 72,126 l 3,0 0,3 -3,0 z M 78,126 l 3,0 0,3 -3,0 z M 84,126 l 3,0 0,3 -3,0 z M 99,126 l 3,0 0,3 -3,0 z M 105,126 l 3,0 0,3 -3,0 z M 114,126 l 3,0 0,3 -3,0 z M 117,126 l 3,0 0,3 -3,0 z M 120,126 l 3,0 0,3 -3,0 z M 132,126 l 3,0 0,3 -3,0 z M 135,126 l 3,0 0,3 -3,0 z M 153,126 l 3,0 0,3 -3,0 z M 159,126 l 3,0 0,3 -3,0 z M 162,126 l 3,0 0,3 -3,0 z M 165,126 l 3,0 0,3 -3,0 z M 171,126 l 3,0 0,3 -3,0 z M 174,126 l 3,0 0,3 -3,0 z M 177,126 l 3,0 0,3 -3,0 z M 186,126 l 3,0 0,3 -3,0 z M 189,126 l 3,0 0,3 -3,0 z M 192,126 l 3,0 0,3 -3,0 z M 204,126 l 3,0 0,3 -3,0 z M 213,126 l 3,0 0,3 -3,0 z M 0,129 l 3,0 0,3 -3,0 z M 3,129 l 3,0 0,3 -3,0 z M 6,129 l 3,0 0,3 -3,0 z M 9,129 l 3,0 0,3 -3,0 z M 12,129 l 3,0 0,3 -3,0 z M 24,129 l 3,0 0,3 -3,0 z M 27,129 l 3,0 0,3 -3,0 z M 30,129 l 3,0 0,3 -3,0 z M 42,129 l 3,0 0,3 -3,0 z M 45,129 l 3,0 0,3 -3,0 z M 51,129 l 3,0 0,3 -3,0 z M 57,129 l 3,0 0,3 -3,0 z M 69,129 l 3,0 0,3 -3,0 z M 72,129 l 3,0 0,3 -3,0 z M 78,129 l 3,0 0,3 -3,0 z M 87,129 l 3,0 0,3 -3,0 z M 90,129 l 3,0 0,3 -3,0 z M 96,129 l 3,0 0,3 -3,0 z M 99,129 l 3,0 0,3 -3,0 z M 102,129 l 3,0 0,3 -3,0 z M 111,129 l 3,0 0,3 -3,0 z M 114,129 l 3,0 0,3 -3,0 z M 117,129 l 3,0 0,3 -3,0 z M 120,129 l 3,0 0,3 -3,0 z M 123,129 l 3,0 0,3 -3,0 z M 126,129 l 3,0 0,3 -3,0 z M 135,129 l 3,0 0,3 -3,0 z M 144,129 l 3,0 0,3 -3,0 z M 150,129 l 3,0 0,3 -3,0 z M 153,129 l 3,0 0,3 -3,0 z M 156,129 l 3,0 0,3 -3,0 z M 159,129 l 3,0 0,3 -3,0 z M 168,129 l 3,0 0,3 -3,0 z M 171,129 l 3,0 0,3 -3,0 z M 177,129 l 3,0 0,3 -3,0 z M 195,129 l 3,0 0,3 -3,0 z M 198,129 l 3,0 0,3 -3,0 z M 204,129 l 3,0 0,3 -3,0 z M 216,129 l 3,0 0,3 -3,0 z M 219,129 l 3,0 0,3 -3,0 z M 228,129 l 3,0 0,3 -3,0 z M 0,132 l 3,0 0,3 -3,0 z M 12,132 l 3,0 0,3 -3,0 z M 18,132 l 3,0 0,3 -3,0 z M 21,132 l 3,0 0,3 -3,0 z M 24,132 l 3,0 0,3 -3,0 z M 39,132 l 3,0 0,3 -3,0 z M 45,132 l 3,0 0,3 -3,0 z M 60,132 l 3,0 0,3 -3,0 z M 66,132 l 3,0 0,3 -3,0 z M 72,132 l 3,0 0,3 -3,0 z M 75,132 l 3,0 0,3 -3,0 z M 84,132 l 3,0 0,3 -3,0 z M 87,132 l 3,0 0,3 -3,0 z M 102,132 l 3,0 0,3 -3,0 z M 108,132 l 3,0 0,3 -3,0 z M 111,132 l 3,0 0,3 -3,0 z M 117,132 l 3,0 0,3 -3,0 z M 120,132 l 3,0 0,3 -3,0 z M 123,132 l 3,0 0,3 -3,0 z M 129,132 l 3,0 0,3 -3,0 z M 141,132 l 3,0 0,3 -3,0 z M 162,132 l 3,0 0,3 -3,0 z M 168,132 l 3,0 0,3 -3,0 z M 171,132 l 3,0 0,3 -3,0 z M 174,132 l 3,0 0,3 -3,0 z M 186,132 l 3,0 0,3 -3,0 z M 192,132 l 3,0 0,3 -3,0 z M 195,132 l 3,0 0,3 -3,0 z M 201,132 l 3,0 0,3 -3,0 z M 204,132 l 3,0 0,3 -3,0 z M 207,132 l 3,0 0,3 -3,0 z M 213,132 l 3,0 0,3 -3,0 z M 216,132 l 3,0 0,3 -3,0 z M 228,132 l 3,0 0,3 -3,0 z M 0,135 l 3,0 0,3 -3,0 z M 3,135 l 3,0 0,3 -3,0 z M 9,135 l 3,0 0,3 -3,0 z M 12,135 l 3,0 0,3 -3,0 z M 24,135 l 3,0 0,3 -3,0 z M 39,135 l 3,0 0,3 -3,0 z M 45,135 l 3,0 0,3 -3,0 z M 48,135 l 3,0 0,3 -3,0 z M 51,135 l 3,0 0,3 -3,0 z M 60,135 l 3,0 0,3 -3,0 z M 78,135 l 3,0 0,3 -3,0 z M 81,135 l 3,0 0,3 -3,0 z M 87,135 l 3,0 0,3 -3,0 z M 90,135 l 3,0 0,3 -3,0 z M 93,135 l 3,0 0,3 -3,0 z M 99,135 l 3,0 0,3 -3,0 z M 108,135 l 3,0 0,3 -3,0 z M 120,135 l 3,0 0,3 -3,0 z M 132,135 l 3,0 0,3 -3,0 z M 141,135 l 3,0 0,3 -3,0 z M 144,135 l 3,0 0,3 -3,0 z M 147,135 l 3,0 0,3 -3,0 z M 153,135 l 3,0 0,3 -3,0 z M 156,135 l 3,0 0,3 -3,0 z M 165,135 l 3,0 0,3 -3,0 z M 168,135 l 3,0 0,3 -3,0 z M 189,135 l 3,0 0,3 -3,0 z M 192,135 l 3,0 0,3 -3,0 z M 204,135 l 3,0 0,3 -3,0 z M 210,135 l 3,0 0,3 -3,0 z M 213,135 l 3,0 0,3 -3,0 z M 219,135 l 3,0 0,3 -3,0 z M 225,135 l 3,0 0,3 -3,0 z M 228,135 l 3,0 0,3 -3,0 z M 0,138 l 3,0 0,3 -3,0 z M 9,138 l 3,0 0,3 -3,0 z M 12,138 l 3,0 0,3 -3,0 z M 15,138 l 3,0 0,3 -3,0 z M 18,138 l 3,0 0,3 -3,0 z M 21,138 l 3,0 0,3 -3,0 z M 24,138 l 3,0 0,3 -3,0 z M 27,138 l 3,0 0,3 -3,0 z M 30,138 l 3,0 0,3 -3,0 z M 33,138 l 3,0 0,3 -3,0 z M 42,138 l 3,0 0,3 -3,0 z M 45,138 l 3,0 0,3 -3,0 z M 51,138 l 3,0 0,3 -3,0 z M 54,138 l 3,0 0,3 -3,0 z M 60,138 l 3,0 0,3 -3,0 z M 63,138 l 3,0 0,3 -3,0 z M 66,138 l 3,0 0,3 -3,0 z M 69,138 l 3,0 0,3 -3,0 z M 72,138 l 3,0 0,3 -3,0 z M 75,138 l 3,0 0,3 -3,0 z M 78,138 l 3,0 0,3 -3,0 z M 81,138 l 3,0 0,3 -3,0 z M 84,138 l 3,0 0,3 -3,0 z M 93,138 l 3,0 0,3 -3,0 z M 96,138 l 3,0 0,3 -3,0 z M 102,138 l 3,0 0,3 -3,0 z M 105,138 l 3,0 0,3 -3,0 z M 114,138 l 3,0 0,3 -3,0 z M 117,138 l 3,0 0,3 -3,0 z M 132,138 l 3,0 0,3 -3,0 z M 138,138 l 3,0 0,3 -3,0 z M 141,138 l 3,0 0,3 -3,0 z M 144,138 l 3,0 0,3 -3,0 z M 147,138 l 3,0 0,3 -3,0 z M 150,138 l 3,0 0,3 -3,0 z M 153,138 l 3,0 0,3 -3,0 z M 162,138 l 3,0 0,3 -3,0 z M 174,138 l 3,0 0,3 -3,0 z M 177,138 l 3,0 0,3 -3,0 z M 180,138 l 3,0 0,3 -3,0 z M 183,138 l 3,0 0,3 -3,0 z M 201,138 l 3,0 0,3 -3,0 z M 204,138 l 3,0 0,3 -3,0 z M 207,138 l 3,0 0,3 -3,0 z M 210,138 l 3,0 0,3 -3,0 z M 213,138 l 3,0 0,3 -3,0 z M 216,138 l 3,0 0,3 -3,0 z M 225,138 l 3,0 0,3 -3,0 z M 228,138 l 3,0 0,3 -3,0 z M 3,141 l 3,0 0,3 -3,0 z M 6,141 l 3,0 0,3 -3,0 z M 12,141 l 3,0 0,3 -3,0 z M 24,141 l 3,0 0,3 -3,0 z M 27,141 l 3,0 0,3 -3,0 z M 30,141 l 3,0 0,3 -3,0 z M 36,141 l 3,0 0,3 -3,0 z M 51,141 l 3,0 0,3 -3,0 z M 57,141 l 3,0 0,3 -3,0 z M 63,141 l 3,0 0,3 -3,0 z M 72,141 l 3,0 0,3 -3,0 z M 84,141 l 3,0 0,3 -3,0 z M 87,141 l 3,0 0,3 -3,0 z M 96,141 l 3,0 0,3 -3,0 z M 105,141 l 3,0 0,3 -3,0 z M 108,141 l 3,0 0,3 -3,0 z M 111,141 l 3,0 0,3 -3,0 z M 114,141 l 3,0 0,3 -3,0 z M 117,141 l 3,0 0,3 -3,0 z M 123,141 l 3,0 0,3 -3,0 z M 135,141 l 3,0 0,3 -3,0 z M 138,141 l 3,0 0,3 -3,0 z M 150,141 l 3,0 0,3 -3,0 z M 162,141 l 3,0 0,3 -3,0 z M 171,141 l 3,0 0,3 -3,0 z M 189,141 l 3,0 0,3 -3,0 z M 195,141 l 3,0 0,3 -3,0 z M 204,141 l 3,0 0,3 -3,0 z M 216,141 l 3,0 0,3 -3,0 z M 219,141 l 3,0 0,3 -3,0 z M 228,141 l 3,0 0,3 -3,0 z M 0,144 l 3,0 0,3 -3,0 z M 3,144 l 3,0 0,3 -3,0 z M 9,144 l 3,0 0,3 -3,0 z M 12,144 l 3,0 0,3 -3,0 z M 18,144 l 3,0 0,3 -3,0 z M 24,144 l 3,0 0,3 -3,0 z M 27,144 l 3,0 0,3 -3,0 z M 30,144 l 3,0 0,3 -3,0 z M 36,144 l 3,0 0,3 -3,0 z M 39,144 l 3,0 0,3 -3,0 z M 48,144 l 3,0 0,3 -3,0 z M 51,144 l 3,0 0,3 -3,0 z M 54,144 l 3,0 0,3 -3,0 z M 60,144 l 3,0 0,3 -3,0 z M 63,144 l 3,0 0,3 -3,0 z M 72,144 l 3,0 0,3 -3,0 z M 78,144 l 3,0 0,3 -3,0 z M 84,144 l 3,0 0,3 -3,0 z M 87,144 l 3,0 0,3 -3,0 z M 90,144 l 3,0 0,3 -3,0 z M 105,144 l 3,0 0,3 -3,0 z M 108,144 l 3,0 0,3 -3,0 z M 114,144 l 3,0 0,3 -3,0 z M 120,144 l 3,0 0,3 -3,0 z M 123,144 l 3,0 0,3 -3,0 z M 126,144 l 3,0 0,3 -3,0 z M 129,144 l 3,0 0,3 -3,0 z M 135,144 l 3,0 0,3 -3,0 z M 138,144 l 3,0 0,3 -3,0 z M 144,144 l 3,0 0,3 -3,0 z M 150,144 l 3,0 0,3 -3,0 z M 153,144 l 3,0 0,3 -3,0 z M 159,144 l 3,0 0,3 -3,0 z M 168,144 l 3,0 0,3 -3,0 z M 174,144 l 3,0 0,3 -3,0 z M 180,144 l 3,0 0,3 -3,0 z M 183,144 l 3,0 0,3 -3,0 z M 186,144 l 3,0 0,3 -3,0 z M 204,144 l 3,0 0,3 -3,0 z M 210,144 l 3,0 0,3 -3,0 z M 216,144 l 3,0 0,3 -3,0 z M 228,144 l 3,0 0,3 -3,0 z M 12,147 l 3,0 0,3 -3,0 z M 24,147 l 3,0 0,3 -3,0 z M 27,147 l 3,0 0,3 -3,0 z M 30,147 l 3,0 0,3 -3,0 z M 33,147 l 3,0 0,3 -3,0 z M 45,147 l 3,0 0,3 -3,0 z M 54,147 l 3,0 0,3 -3,0 z M 57,147 l 3,0 0,3 -3,0 z M 66,147 l 3,0 0,3 -3,0 z M 69,147 l 3,0 0,3 -3,0 z M 72,147 l 3,0 0,3 -3,0 z M 84,147 l 3,0 0,3 -3,0 z M 87,147 l 3,0 0,3 -3,0 z M 93,147 l 3,0 0,3 -3,0 z M 99,147 l 3,0 0,3 -3,0 z M 105,147 l 3,0 0,3 -3,0 z M 111,147 l 3,0 0,3 -3,0 z M 114,147 l 3,0 0,3 -3,0 z M 117,147 l 3,0 0,3 -3,0 z M 120,147 l 3,0 0,3 -3,0 z M 129,147 l 3,0 0,3 -3,0 z M 135,147 l 3,0 0,3 -3,0 z M 138,147 l 3,0 0,3 -3,0 z M 150,147 l 3,0 0,3 -3,0 z M 153,147 l 3,0 0,3 -3,0 z M 156,147 l 3,0 0,3 -3,0 z M 171,147 l 3,0 0,3 -3,0 z M 174,147 l 3,0 0,3 -3,0 z M 177,147 l 3,0 0,3 -3,0 z M 180,147 l 3,0 0,3 -3,0 z M 186,147 l 3,0 0,3 -3,0 z M 192,147 l 3,0 0,3 -3,0 z M 198,147 l 3,0 0,3 -3,0 z M 204,147 l 3,0 0,3 -3,0 z M 216,147 l 3,0 0,3 -3,0 z M 222,147 l 3,0 0,3 -3,0 z M 225,147 l 3,0 0,3 -3,0 z M 228,147 l 3,0 0,3 -3,0 z M 0,150 l 3,0 0,3 -3,0 z M 9,150 l 3,0 0,3 -3,0 z M 12,150 l 3,0 0,3 -3,0 z M 15,150 l 3,0 0,3 -3,0 z M 18,150 l 3,0 0,3 -3,0 z M 21,150 l 3,0 0,3 -3,0 z M 24,150 l 3,0 0,3 -3,0 z M 27,150 l 3,0 0,3 -3,0 z M 30,150 l 3,0 0,3 -3,0 z M 33,150 l 3,0 0,3 -3,0 z M 39,150 l 3,0 0,3 -3,0 z M 48,150 l 3,0 0,3 -3,0 z M 51,150 l 3,0 0,3 -3,0 z M 54,150 l 3,0 0,3 -3,0 z M 60,150 l 3,0 0,3 -3,0 z M 63,150 l 3,0 0,3 -3,0 z M 72,150 l 3,0 0,3 -3,0 z M 75,150 l 3,0 0,3 -3,0 z M 78,150 l 3,0 0,3 -3,0 z M 81,150 l 3,0 0,3 -3,0 z M 84,150 l 3,0 0,3 -3,0 z M 90,150 l 3,0 0,3 -3,0 z M 93,150 l 3,0 0,3 -3,0 z M 96,150 l 3,0 0,3 -3,0 z M 102,150 l 3,0 0,3 -3,0 z M 120,150 l 3,0 0,3 -3,0 z M 126,150 l 3,0 0,3 -3,0 z M 129,150 l 3,0 0,3 -3,0 z M 132,150 l 3,0 0,3 -3,0 z M 135,150 l 3,0 0,3 -3,0 z M 138,150 l 3,0 0,3 -3,0 z M 141,150 l 3,0 0,3 -3,0 z M 144,150 l 3,0 0,3 -3,0 z M 147,150 l 3,0 0,3 -3,0 z M 150,150 l 3,0 0,3 -3,0 z M 159,150 l 3,0 0,3 -3,0 z M 165,150 l 3,0 0,3 -3,0 z M 177,150 l 3,0 0,3 -3,0 z M 180,150 l 3,0 0,3 -3,0 z M 186,150 l 3,0 0,3 -3,0 z M 195,150 l 3,0 0,3 -3,0 z M 198,150 l 3,0 0,3 -3,0 z M 204,150 l 3,0 0,3 -3,0 z M 207,150 l 3,0 0,3 -3,0 z M 210,150 l 3,0 0,3 -3,0 z M 213,150 l 3,0 0,3 -3,0 z M 216,150 l 3,0 0,3 -3,0 z M 219,150 l 3,0 0,3 -3,0 z M 6,153 l 3,0 0,3 -3,0 z M 21,153 l 3,0 0,3 -3,0 z M 27,153 l 3,0 0,3 -3,0 z M 33,153 l 3,0 0,3 -3,0 z M 66,153 l 3,0 0,3 -3,0 z M 69,153 l 3,0 0,3 -3,0 z M 87,153 l 3,0 0,3 -3,0 z M 96,153 l 3,0 0,3 -3,0 z M 102,153 l 3,0 0,3 -3,0 z M 111,153 l 3,0 0,3 -3,0 z M 117,153 l 3,0 0,3 -3,0 z M 120,153 l 3,0 0,3 -3,0 z M 141,153 l 3,0 0,3 -3,0 z M 144,153 l 3,0 0,3 -3,0 z M 159,153 l 3,0 0,3 -3,0 z M 162,153 l 3,0 0,3 -3,0 z M 165,153 l 3,0 0,3 -3,0 z M 168,153 l 3,0 0,3 -3,0 z M 174,153 l 3,0 0,3 -3,0 z M 180,153 l 3,0 0,3 -3,0 z M 189,153 l 3,0 0,3 -3,0 z M 192,153 l 3,0 0,3 -3,0 z M 195,153 l 3,0 0,3 -3,0 z M 198,153 l 3,0 0,3 -3,0 z M 213,153 l 3,0 0,3 -3,0 z M 216,153 l 3,0 0,3 -3,0 z M 222,153 l 3,0 0,3 -3,0 z M 6,156 l 3,0 0,3 -3,0 z M 9,156 l 3,0 0,3 -3,0 z M 12,156 l 3,0 0,3 -3,0 z M 18,156 l 3,0 0,3 -3,0 z M 21,156 l 3,0 0,3 -3,0 z M 27,156 l 3,0 0,3 -3,0 z M 45,156 l 3,0 0,3 -3,0 z M 51,156 l 3,0 0,3 -3,0 z M 57,156 l 3,0 0,3 -3,0 z M 60,156 l 3,0 0,3 -3,0 z M 63,156 l 3,0 0,3 -3,0 z M 66,156 l 3,0 0,3 -3,0 z M 75,156 l 3,0 0,3 -3,0 z M 78,156 l 3,0 0,3 -3,0 z M 90,156 l 3,0 0,3 -3,0 z M 93,156 l 3,0 0,3 -3,0 z M 99,156 l 3,0 0,3 -3,0 z M 108,156 l 3,0 0,3 -3,0 z M 114,156 l 3,0 0,3 -3,0 z M 117,156 l 3,0 0,3 -3,0 z M 120,156 l 3,0 0,3 -3,0 z M 126,156 l 3,0 0,3 -3,0 z M 129,156 l 3,0 0,3 -3,0 z M 141,156 l 3,0 0,3 -3,0 z M 153,156 l 3,0 0,3 -3,0 z M 156,156 l 3,0 0,3 -3,0 z M 168,156 l 3,0 0,3 -3,0 z M 180,156 l 3,0 0,3 -3,0 z M 183,156 l 3,0 0,3 -3,0 z M 186,156 l 3,0 0,3 -3,0 z M 210,156 l 3,0 0,3 -3,0 z M 213,156 l 3,0 0,3 -3,0 z M 225,156 l 3,0 0,3 -3,0 z M 3,159 l 3,0 0,3 -3,0 z M 6,159 l 3,0 0,3 -3,0 z M 9,159 l 3,0 0,3 -3,0 z M 15,159 l 3,0 0,3 -3,0 z M 21,159 l 3,0 0,3 -3,0 z M 24,159 l 3,0 0,3 -3,0 z M 30,159 l 3,0 0,3 -3,0 z M 54,159 l 3,0 0,3 -3,0 z M 60,159 l 3,0 0,3 -3,0 z M 66,159 l 3,0 0,3 -3,0 z M 69,159 l 3,0 0,3 -3,0 z M 75,159 l 3,0 0,3 -3,0 z M 81,159 l 3,0 0,3 -3,0 z M 93,159 l 3,0 0,3 -3,0 z M 96,159 l 3,0 0,3 -3,0 z M 99,159 l 3,0 0,3 -3,0 z M 102,159 l 3,0 0,3 -3,0 z M 105,159 l 3,0 0,3 -3,0 z M 114,159 l 3,0 0,3 -3,0 z M 117,159 l 3,0 0,3 -3,0 z M 126,159 l 3,0 0,3 -3,0 z M 132,159 l 3,0 0,3 -3,0 z M 135,159 l 3,0 0,3 -3,0 z M 138,159 l 3,0 0,3 -3,0 z M 141,159 l 3,0 0,3 -3,0 z M 150,159 l 3,0 0,3 -3,0 z M 153,159 l 3,0 0,3 -3,0 z M 156,159 l 3,0 0,3 -3,0 z M 162,159 l 3,0 0,3 -3,0 z M 168,159 l 3,0 0,3 -3,0 z M 171,159 l 3,0 0,3 -3,0 z M 180,159 l 3,0 0,3 -3,0 z M 183,159 l 3,0 0,3 -3,0 z M 186,159 l 3,0 0,3 -3,0 z M 189,159 l 3,0 0,3 -3,0 z M 192,159 l 3,0 0,3 -3,0 z M 195,159 l 3,0 0,3 -3,0 z M 198,159 l 3,0 0,3 -3,0 z M 204,159 l 3,0 0,3 -3,0 z M 216,159 l 3,0 0,3 -3,0 z M 219,159 l 3,0 0,3 -3,0 z M 225,159 l 3,0 0,3 -3,0 z M 228,159 l 3,0 0,3 -3,0 z M 9,162 l 3,0 0,3 -3,0 z M 12,162 l 3,0 0,3 -3,0 z M 18,162 l 3,0 0,3 -3,0 z M 21,162 l 3,0 0,3 -3,0 z M 24,162 l 3,0 0,3 -3,0 z M 27,162 l 3,0 0,3 -3,0 z M 30,162 l 3,0 0,3 -3,0 z M 33,162 l 3,0 0,3 -3,0 z M 39,162 l 3,0 0,3 -3,0 z M 48,162 l 3,0 0,3 -3,0 z M 51,162 l 3,0 0,3 -3,0 z M 54,162 l 3,0 0,3 -3,0 z M 57,162 l 3,0 0,3 -3,0 z M 60,162 l 3,0 0,3 -3,0 z M 75,162 l 3,0 0,3 -3,0 z M 78,162 l 3,0 0,3 -3,0 z M 81,162 l 3,0 0,3 -3,0 z M 84,162 l 3,0 0,3 -3,0 z M 90,162 l 3,0 0,3 -3,0 z M 93,162 l 3,0 0,3 -3,0 z M 99,162 l 3,0 0,3 -3,0 z M 105,162 l 3,0 0,3 -3,0 z M 108,162 l 3,0 0,3 -3,0 z M 111,162 l 3,0 0,3 -3,0 z M 117,162 l 3,0 0,3 -3,0 z M 120,162 l 3,0 0,3 -3,0 z M 132,162 l 3,0 0,3 -3,0 z M 144,162 l 3,0 0,3 -3,0 z M 147,162 l 3,0 0,3 -3,0 z M 150,162 l 3,0 0,3 -3,0 z M 159,162 l 3,0 0,3 -3,0 z M 162,162 l 3,0 0,3 -3,0 z M 168,162 l 3,0 0,3 -3,0 z M 174,162 l 3,0 0,3 -3,0 z M 180,162 l 3,0 0,3 -3,0 z M 189,162 l 3,0 0,3 -3,0 z M 195,162 l 3,0 0,3 -3,0 z M 207,162 l 3,0 0,3 -3,0 z M 210,162 l 3,0 0,3 -3,0 z M 216,162 l 3,0 0,3 -3,0 z M 225,162 l 3,0 0,3 -3,0 z M 228,162 l 3,0 0,3 -3,0 z M 3,165 l 3,0 0,3 -3,0 z M 6,165 l 3,0 0,3 -3,0 z M 15,165 l 3,0 0,3 -3,0 z M 21,165 l 3,0 0,3 -3,0 z M 27,165 l 3,0 0,3 -3,0 z M 30,165 l 3,0 0,3 -3,0 z M 36,165 l 3,0 0,3 -3,0 z M 45,165 l 3,0 0,3 -3,0 z M 48,165 l 3,0 0,3 -3,0 z M 51,165 l 3,0 0,3 -3,0 z M 63,165 l 3,0 0,3 -3,0 z M 69,165 l 3,0 0,3 -3,0 z M 78,165 l 3,0 0,3 -3,0 z M 90,165 l 3,0 0,3 -3,0 z M 102,165 l 3,0 0,3 -3,0 z M 108,165 l 3,0 0,3 -3,0 z M 114,165 l 3,0 0,3 -3,0 z M 117,165 l 3,0 0,3 -3,0 z M 120,165 l 3,0 0,3 -3,0 z M 123,165 l 3,0 0,3 -3,0 z M 126,165 l 3,0 0,3 -3,0 z M 141,165 l 3,0 0,3 -3,0 z M 147,165 l 3,0 0,3 -3,0 z M 150,165 l 3,0 0,3 -3,0 z M 159,165 l 3,0 0,3 -3,0 z M 162,165 l 3,0 0,3 -3,0 z M 168,165 l 3,0 0,3 -3,0 z M 171,165 l 3,0 0,3 -3,0 z M 174,165 l 3,0 0,3 -3,0 z M 177,165 l 3,0 0,3 -3,0 z M 180,165 l 3,0 0,3 -3,0 z M 192,165 l 3,0 0,3 -3,0 z M 195,165 l 3,0 0,3 -3,0 z M 198,165 l 3,0 0,3 -3,0 z M 213,165 l 3,0 0,3 -3,0 z M 219,165 l 3,0 0,3 -3,0 z M 222,165 l 3,0 0,3 -3,0 z M 225,165 l 3,0 0,3 -3,0 z M 228,165 l 3,0 0,3 -3,0 z M 0,168 l 3,0 0,3 -3,0 z M 15,168 l 3,0 0,3 -3,0 z M 18,168 l 3,0 0,3 -3,0 z M 21,168 l 3,0 0,3 -3,0 z M 30,168 l 3,0 0,3 -3,0 z M 36,168 l 3,0 0,3 -3,0 z M 42,168 l 3,0 0,3 -3,0 z M 45,168 l 3,0 0,3 -3,0 z M 51,168 l 3,0 0,3 -3,0 z M 54,168 l 3,0 0,3 -3,0 z M 57,168 l 3,0 0,3 -3,0 z M 60,168 l 3,0 0,3 -3,0 z M 66,168 l 3,0 0,3 -3,0 z M 72,168 l 3,0 0,3 -3,0 z M 75,168 l 3,0 0,3 -3,0 z M 78,168 l 3,0 0,3 -3,0 z M 81,168 l 3,0 0,3 -3,0 z M 84,168 l 3,0 0,3 -3,0 z M 87,168 l 3,0 0,3 -3,0 z M 90,168 l 3,0 0,3 -3,0 z M 93,168 l 3,0 0,3 -3,0 z M 99,168 l 3,0 0,3 -3,0 z M 102,168 l 3,0 0,3 -3,0 z M 105,168 l 3,0 0,3 -3,0 z M 111,168 l 3,0 0,3 -3,0 z M 126,168 l 3,0 0,3 -3,0 z M 129,168 l 3,0 0,3 -3,0 z M 135,168 l 3,0 0,3 -3,0 z M 147,168 l 3,0 0,3 -3,0 z M 153,168 l 3,0 0,3 -3,0 z M 171,168 l 3,0 0,3 -3,0 z M 186,168 l 3,0 0,3 -3,0 z M 189,168 l 3,0 0,3 -3,0 z M 192,168 l 3,0 0,3 -3,0 z M 198,168 l 3,0 0,3 -3,0 z M 201,168 l 3,0 0,3 -3,0 z M 216,168 l 3,0 0,3 -3,0 z M 228,168 l 3,0 0,3 -3,0 z M 0,171 l 3,0 0,3 -3,0 z M 3,171 l 3,0 0,3 -3,0 z M 6,171 l 3,0 0,3 -3,0 z M 12,171 l 3,0 0,3 -3,0 z M 15,171 l 3,0 0,3 -3,0 z M 21,171 l 3,0 0,3 -3,0 z M 36,171 l 3,0 0,3 -3,0 z M 39,171 l 3,0 0,3 -3,0 z M 45,171 l 3,0 0,3 -3,0 z M 60,171 l 3,0 0,3 -3,0 z M 63,171 l 3,0 0,3 -3,0 z M 78,171 l 3,0 0,3 -3,0 z M 81,171 l 3,0 0,3 -3,0 z M 84,171 l 3,0 0,3 -3,0 z M 90,171 l 3,0 0,3 -3,0 z M 93,171 l 3,0 0,3 -3,0 z M 96,171 l 3,0 0,3 -3,0 z M 111,171 l 3,0 0,3 -3,0 z M 123,171 l 3,0 0,3 -3,0 z M 129,171 l 3,0 0,3 -3,0 z M 135,171 l 3,0 0,3 -3,0 z M 147,171 l 3,0 0,3 -3,0 z M 153,171 l 3,0 0,3 -3,0 z M 159,171 l 3,0 0,3 -3,0 z M 171,171 l 3,0 0,3 -3,0 z M 174,171 l 3,0 0,3 -3,0 z M 186,171 l 3,0 0,3 -3,0 z M 189,171 l 3,0 0,3 -3,0 z M 192,171 l 3,0 0,3 -3,0 z M 195,171 l 3,0 0,3 -3,0 z M 198,171 l 3,0 0,3 -3,0 z M 201,171 l 3,0 0,3 -3,0 z M 213,171 l 3,0 0,3 -3,0 z M 216,171 l 3,0 0,3 -3,0 z M 222,171 l 3,0 0,3 -3,0 z M 225,171 l 3,0 0,3 -3,0 z M 228,171 l 3,0 0,3 -3,0 z M 3,174 l 3,0 0,3 -3,0 z M 6,174 l 3,0 0,3 -3,0 z M 9,174 l 3,0 0,3 -3,0 z M 15,174 l 3,0 0,3 -3,0 z M 18,174 l 3,0 0,3 -3,0 z M 21,174 l 3,0 0,3 -3,0 z M 33,174 l 3,0 0,3 -3,0 z M 45,174 l 3,0 0,3 -3,0 z M 54,174 l 3,0 0,3 -3,0 z M 60,174 l 3,0 0,3 -3,0 z M 69,174 l 3,0 0,3 -3,0 z M 75,174 l 3,0 0,3 -3,0 z M 78,174 l 3,0 0,3 -3,0 z M 81,174 l 3,0 0,3 -3,0 z M 84,174 l 3,0 0,3 -3,0 z M 87,174 l 3,0 0,3 -3,0 z M 90,174 l 3,0 0,3 -3,0 z M 93,174 l 3,0 0,3 -3,0 z M 99,174 l 3,0 0,3 -3,0 z M 105,174 l 3,0 0,3 -3,0 z M 120,174 l 3,0 0,3 -3,0 z M 123,174 l 3,0 0,3 -3,0 z M 126,174 l 3,0 0,3 -3,0 z M 129,174 l 3,0 0,3 -3,0 z M 135,174 l 3,0 0,3 -3,0 z M 138,174 l 3,0 0,3 -3,0 z M 141,174 l 3,0 0,3 -3,0 z M 144,174 l 3,0 0,3 -3,0 z M 150,174 l 3,0 0,3 -3,0 z M 156,174 l 3,0 0,3 -3,0 z M 162,174 l 3,0 0,3 -3,0 z M 171,174 l 3,0 0,3 -3,0 z M 174,174 l 3,0 0,3 -3,0 z M 177,174 l 3,0 0,3 -3,0 z M 180,174 l 3,0 0,3 -3,0 z M 186,174 l 3,0 0,3 -3,0 z M 192,174 l 3,0 0,3 -3,0 z M 195,174 l 3,0 0,3 -3,0 z M 201,174 l 3,0 0,3 -3,0 z M 204,174 l 3,0 0,3 -3,0 z M 210,174 l 3,0 0,3 -3,0 z M 213,174 l 3,0 0,3 -3,0 z M 216,174 l 3,0 0,3 -3,0 z M 222,174 l 3,0 0,3 -3,0 z M 0,177 l 3,0 0,3 -3,0 z M 6,177 l 3,0 0,3 -3,0 z M 9,177 l 3,0 0,3 -3,0 z M 12,177 l 3,0 0,3 -3,0 z M 15,177 l 3,0 0,3 -3,0 z M 33,177 l 3,0 0,3 -3,0 z M 36,177 l 3,0 0,3 -3,0 z M 39,177 l 3,0 0,3 -3,0 z M 42,177 l 3,0 0,3 -3,0 z M 48,177 l 3,0 0,3 -3,0 z M 54,177 l 3,0 0,3 -3,0 z M 57,177 l 3,0 0,3 -3,0 z M 63,177 l 3,0 0,3 -3,0 z M 66,177 l 3,0 0,3 -3,0 z M 69,177 l 3,0 0,3 -3,0 z M 72,177 l 3,0 0,3 -3,0 z M 87,177 l 3,0 0,3 -3,0 z M 90,177 l 3,0 0,3 -3,0 z M 93,177 l 3,0 0,3 -3,0 z M 111,177 l 3,0 0,3 -3,0 z M 117,177 l 3,0 0,3 -3,0 z M 120,177 l 3,0 0,3 -3,0 z M 126,177 l 3,0 0,3 -3,0 z M 129,177 l 3,0 0,3 -3,0 z M 135,177 l 3,0 0,3 -3,0 z M 138,177 l 3,0 0,3 -3,0 z M 150,177 l 3,0 0,3 -3,0 z M 153,177 l 3,0 0,3 -3,0 z M 156,177 l 3,0 0,3 -3,0 z M 162,177 l 3,0 0,3 -3,0 z M 165,177 l 3,0 0,3 -3,0 z M 177,177 l 3,0 0,3 -3,0 z M 186,177 l 3,0 0,3 -3,0 z M 198,177 l 3,0 0,3 -3,0 z M 204,177 l 3,0 0,3 -3,0 z M 216,177 l 3,0 0,3 -3,0 z M 222,177 l 3,0 0,3 -3,0 z M 228,177 l 3,0 0,3 -3,0 z M 3,180 l 3,0 0,3 -3,0 z M 12,180 l 3,0 0,3 -3,0 z M 18,180 l 3,0 0,3 -3,0 z M 21,180 l 3,0 0,3 -3,0 z M 24,180 l 3,0 0,3 -3,0 z M 27,180 l 3,0 0,3 -3,0 z M 39,180 l 3,0 0,3 -3,0 z M 42,180 l 3,0 0,3 -3,0 z M 45,180 l 3,0 0,3 -3,0 z M 69,180 l 3,0 0,3 -3,0 z M 75,180 l 3,0 0,3 -3,0 z M 81,180 l 3,0 0,3 -3,0 z M 93,180 l 3,0 0,3 -3,0 z M 102,180 l 3,0 0,3 -3,0 z M 105,180 l 3,0 0,3 -3,0 z M 108,180 l 3,0 0,3 -3,0 z M 111,180 l 3,0 0,3 -3,0 z M 117,180 l 3,0 0,3 -3,0 z M 120,180 l 3,0 0,3 -3,0 z M 126,180 l 3,0 0,3 -3,0 z M 129,180 l 3,0 0,3 -3,0 z M 135,180 l 3,0 0,3 -3,0 z M 141,180 l 3,0 0,3 -3,0 z M 147,180 l 3,0 0,3 -3,0 z M 159,180 l 3,0 0,3 -3,0 z M 165,180 l 3,0 0,3 -3,0 z M 174,180 l 3,0 0,3 -3,0 z M 177,180 l 3,0 0,3 -3,0 z M 186,180 l 3,0 0,3 -3,0 z M 189,180 l 3,0 0,3 -3,0 z M 192,180 l 3,0 0,3 -3,0 z M 195,180 l 3,0 0,3 -3,0 z M 201,180 l 3,0 0,3 -3,0 z M 207,180 l 3,0 0,3 -3,0 z M 210,180 l 3,0 0,3 -3,0 z M 213,180 l 3,0 0,3 -3,0 z M 222,180 l 3,0 0,3 -3,0 z M 12,183 l 3,0 0,3 -3,0 z M 21,183 l 3,0 0,3 -3,0 z M 27,183 l 3,0 0,3 -3,0 z M 30,183 l 3,0 0,3 -3,0 z M 33,183 l 3,0 0,3 -3,0 z M 36,183 l 3,0 0,3 -3,0 z M 42,183 l 3,0 0,3 -3,0 z M 45,183 l 3,0 0,3 -3,0 z M 54,183 l 3,0 0,3 -3,0 z M 69,183 l 3,0 0,3 -3,0 z M 72,183 l 3,0 0,3 -3,0 z M 78,183 l 3,0 0,3 -3,0 z M 84,183 l 3,0 0,3 -3,0 z M 90,183 l 3,0 0,3 -3,0 z M 96,183 l 3,0 0,3 -3,0 z M 105,183 l 3,0 0,3 -3,0 z M 108,183 l 3,0 0,3 -3,0 z M 111,183 l 3,0 0,3 -3,0 z M 114,183 l 3,0 0,3 -3,0 z M 117,183 l 3,0 0,3 -3,0 z M 120,183 l 3,0 0,3 -3,0 z M 132,183 l 3,0 0,3 -3,0 z M 147,183 l 3,0 0,3 -3,0 z M 168,183 l 3,0 0,3 -3,0 z M 177,183 l 3,0 0,3 -3,0 z M 180,183 l 3,0 0,3 -3,0 z M 186,183 l 3,0 0,3 -3,0 z M 198,183 l 3,0 0,3 -3,0 z M 207,183 l 3,0 0,3 -3,0 z M 213,183 l 3,0 0,3 -3,0 z M 225,183 l 3,0 0,3 -3,0 z M 0,186 l 3,0 0,3 -3,0 z M 6,186 l 3,0 0,3 -3,0 z M 9,186 l 3,0 0,3 -3,0 z M 12,186 l 3,0 0,3 -3,0 z M 18,186 l 3,0 0,3 -3,0 z M 21,186 l 3,0 0,3 -3,0 z M 24,186 l 3,0 0,3 -3,0 z M 27,186 l 3,0 0,3 -3,0 z M 33,186 l 3,0 0,3 -3,0 z M 39,186 l 3,0 0,3 -3,0 z M 48,186 l 3,0 0,3 -3,0 z M 51,186 l 3,0 0,3 -3,0 z M 57,186 l 3,0 0,3 -3,0 z M 75,186 l 3,0 0,3 -3,0 z M 87,186 l 3,0 0,3 -3,0 z M 93,186 l 3,0 0,3 -3,0 z M 99,186 l 3,0 0,3 -3,0 z M 105,186 l 3,0 0,3 -3,0 z M 114,186 l 3,0 0,3 -3,0 z M 120,186 l 3,0 0,3 -3,0 z M 129,186 l 3,0 0,3 -3,0 z M 135,186 l 3,0 0,3 -3,0 z M 144,186 l 3,0 0,3 -3,0 z M 147,186 l 3,0 0,3 -3,0 z M 150,186 l 3,0 0,3 -3,0 z M 153,186 l 3,0 0,3 -3,0 z M 159,186 l 3,0 0,3 -3,0 z M 162,186 l 3,0 0,3 -3,0 z M 171,186 l 3,0 0,3 -3,0 z M 177,186 l 3,0 0,3 -3,0 z M 180,186 l 3,0 0,3 -3,0 z M 186,186 l 3,0 0,3 -3,0 z M 198,186 l 3,0 0,3 -3,0 z M 201,186 l 3,0 0,3 -3,0 z M 204,186 l 3,0 0,3 -3,0 z M 210,186 l 3,0 0,3 -3,0 z M 219,186 l 3,0 0,3 -3,0 z M 222,186 l 3,0 0,3 -3,0 z M 0,189 l 3,0 0,3 -3,0 z M 15,189 l 3,0 0,3 -3,0 z M 21,189 l 3,0 0,3 -3,0 z M 24,189 l 3,0 0,3 -3,0 z M 27,189 l 3,0 0,3 -3,0 z M 36,189 l 3,0 0,3 -3,0 z M 45,189 l 3,0 0,3 -3,0 z M 48,189 l 3,0 0,3 -3,0 z M 51,189 l 3,0 0,3 -3,0 z M 60,189 l 3,0 0,3 -3,0 z M 66,189 l 3,0 0,3 -3,0 z M 72,189 l 3,0 0,3 -3,0 z M 75,189 l 3,0 0,3 -3,0 z M 87,189 l 3,0 0,3 -3,0 z M 90,189 l 3,0 0,3 -3,0 z M 99,189 l 3,0 0,3 -3,0 z M 111,189 l 3,0 0,3 -3,0 z M 114,189 l 3,0 0,3 -3,0 z M 117,189 l 3,0 0,3 -3,0 z M 123,189 l 3,0 0,3 -3,0 z M 126,189 l 3,0 0,3 -3,0 z M 132,189 l 3,0 0,3 -3,0 z M 135,189 l 3,0 0,3 -3,0 z M 138,189 l 3,0 0,3 -3,0 z M 141,189 l 3,0 0,3 -3,0 z M 144,189 l 3,0 0,3 -3,0 z M 147,189 l 3,0 0,3 -3,0 z M 156,189 l 3,0 0,3 -3,0 z M 162,189 l 3,0 0,3 -3,0 z M 165,189 l 3,0 0,3 -3,0 z M 168,189 l 3,0 0,3 -3,0 z M 171,189 l 3,0 0,3 -3,0 z M 180,189 l 3,0 0,3 -3,0 z M 183,189 l 3,0 0,3 -3,0 z M 192,189 l 3,0 0,3 -3,0 z M 198,189 l 3,0 0,3 -3,0 z M 204,189 l 3,0 0,3 -3,0 z M 219,189 l 3,0 0,3 -3,0 z M 0,192 l 3,0 0,3 -3,0 z M 3,192 l 3,0 0,3 -3,0 z M 12,192 l 3,0 0,3 -3,0 z M 15,192 l 3,0 0,3 -3,0 z M 18,192 l 3,0 0,3 -3,0 z M 33,192 l 3,0 0,3 -3,0 z M 39,192 l 3,0 0,3 -3,0 z M 45,192 l 3,0 0,3 -3,0 z M 51,192 l 3,0 0,3 -3,0 z M 54,192 l 3,0 0,3 -3,0 z M 78,192 l 3,0 0,3 -3,0 z M 81,192 l 3,0 0,3 -3,0 z M 84,192 l 3,0 0,3 -3,0 z M 87,192 l 3,0 0,3 -3,0 z M 90,192 l 3,0 0,3 -3,0 z M 93,192 l 3,0 0,3 -3,0 z M 96,192 l 3,0 0,3 -3,0 z M 105,192 l 3,0 0,3 -3,0 z M 111,192 l 3,0 0,3 -3,0 z M 117,192 l 3,0 0,3 -3,0 z M 129,192 l 3,0 0,3 -3,0 z M 135,192 l 3,0 0,3 -3,0 z M 138,192 l 3,0 0,3 -3,0 z M 141,192 l 3,0 0,3 -3,0 z M 144,192 l 3,0 0,3 -3,0 z M 147,192 l 3,0 0,3 -3,0 z M 153,192 l 3,0 0,3 -3,0 z M 162,192 l 3,0 0,3 -3,0 z M 171,192 l 3,0 0,3 -3,0 z M 174,192 l 3,0 0,3 -3,0 z M 177,192 l 3,0 0,3 -3,0 z M 186,192 l 3,0 0,3 -3,0 z M 189,192 l 3,0 0,3 -3,0 z M 201,192 l 3,0 0,3 -3,0 z M 210,192 l 3,0 0,3 -3,0 z M 216,192 l 3,0 0,3 -3,0 z M 219,192 l 3,0 0,3 -3,0 z M 222,192 l 3,0 0,3 -3,0 z M 225,192 l 3,0 0,3 -3,0 z M 0,195 l 3,0 0,3 -3,0 z M 6,195 l 3,0 0,3 -3,0 z M 9,195 l 3,0 0,3 -3,0 z M 12,195 l 3,0 0,3 -3,0 z M 21,195 l 3,0 0,3 -3,0 z M 24,195 l 3,0 0,3 -3,0 z M 33,195 l 3,0 0,3 -3,0 z M 36,195 l 3,0 0,3 -3,0 z M 48,195 l 3,0 0,3 -3,0 z M 60,195 l 3,0 0,3 -3,0 z M 63,195 l 3,0 0,3 -3,0 z M 66,195 l 3,0 0,3 -3,0 z M 72,195 l 3,0 0,3 -3,0 z M 75,195 l 3,0 0,3 -3,0 z M 87,195 l 3,0 0,3 -3,0 z M 90,195 l 3,0 0,3 -3,0 z M 96,195 l 3,0 0,3 -3,0 z M 99,195 l 3,0 0,3 -3,0 z M 105,195 l 3,0 0,3 -3,0 z M 108,195 l 3,0 0,3 -3,0 z M 114,195 l 3,0 0,3 -3,0 z M 117,195 l 3,0 0,3 -3,0 z M 120,195 l 3,0 0,3 -3,0 z M 123,195 l 3,0 0,3 -3,0 z M 126,195 l 3,0 0,3 -3,0 z M 138,195 l 3,0 0,3 -3,0 z M 141,195 l 3,0 0,3 -3,0 z M 168,195 l 3,0 0,3 -3,0 z M 174,195 l 3,0 0,3 -3,0 z M 183,195 l 3,0 0,3 -3,0 z M 189,195 l 3,0 0,3 -3,0 z M 198,195 l 3,0 0,3 -3,0 z M 204,195 l 3,0 0,3 -3,0 z M 207,195 l 3,0 0,3 -3,0 z M 210,195 l 3,0 0,3 -3,0 z M 213,195 l 3,0 0,3 -3,0 z M 216,195 l 3,0 0,3 -3,0 z M 219,195 l 3,0 0,3 -3,0 z M 225,195 l 3,0 0,3 -3,0 z M 228,195 l 3,0 0,3 -3,0 z M 3,198 l 3,0 0,3 -3,0 z M 12,198 l 3,0 0,3 -3,0 z M 15,198 l 3,0 0,3 -3,0 z M 18,198 l 3,0 0,3 -3,0 z M 21,198 l 3,0 0,3 -3,0 z M 24,198 l 3,0 0,3 -3,0 z M 27,198 l 3,0 0,3 -3,0 z M 36,198 l 3,0 0,3 -3,0 z M 51,198 l 3,0 0,3 -3,0 z M 63,198 l 3,0 0,3 -3,0 z M 72,198 l 3,0 0,3 -3,0 z M 75,198 l 3,0 0,3 -3,0 z M 81,198 l 3,0 0,3 -3,0 z M 93,198 l 3,0 0,3 -3,0 z M 96,198 l 3,0 0,3 -3,0 z M 105,198 l 3,0 0,3 -3,0 z M 108,198 l 3,0 0,3 -3,0 z M 114,198 l 3,0 0,3 -3,0 z M 117,198 l 3,0 0,3 -3,0 z M 123,198 l 3,0 0,3 -3,0 z M 129,198 l 3,0 0,3 -3,0 z M 135,198 l 3,0 0,3 -3,0 z M 141,198 l 3,0 0,3 -3,0 z M 144,198 l 3,0 0,3 -3,0 z M 147,198 l 3,0 0,3 -3,0 z M 150,198 l 3,0 0,3 -3,0 z M 159,198 l 3,0 0,3 -3,0 z M 162,198 l 3,0 0,3 -3,0 z M 165,198 l 3,0 0,3 -3,0 z M 171,198 l 3,0 0,3 -3,0 z M 174,198 l 3,0 0,3 -3,0 z M 177,198 l 3,0 0,3 -3,0 z M 183,198 l 3,0 0,3 -3,0 z M 189,198 l 3,0 0,3 -3,0 z M 198,198 l 3,0 0,3 -3,0 z M 207,198 l 3,0 0,3 -3,0 z M 210,198 l 3,0 0,3 -3,0 z M 219,198 l 3,0 0,3 -3,0 z M 222,198 l 3,0 0,3 -3,0 z M 12,201 l 3,0 0,3 -3,0 z M 27,201 l 3,0 0,3 -3,0 z M 30,201 l 3,0 0,3 -3,0 z M 36,201 l 3,0 0,3 -3,0 z M 39,201 l 3,0 0,3 -3,0 z M 48,201 l 3,0 0,3 -3,0 z M 51,201 l 3,0 0,3 -3,0 z M 63,201 l 3,0 0,3 -3,0 z M 69,201 l 3,0 0,3 -3,0 z M 72,201 l 3,0 0,3 -3,0 z M 78,201 l 3,0 0,3 -3,0 z M 84,201 l 3,0 0,3 -3,0 z M 87,201 l 3,0 0,3 -3,0 z M 90,201 l 3,0 0,3 -3,0 z M 111,201 l 3,0 0,3 -3,0 z M 114,201 l 3,0 0,3 -3,0 z M 117,201 l 3,0 0,3 -3,0 z M 120,201 l 3,0 0,3 -3,0 z M 132,201 l 3,0 0,3 -3,0 z M 144,201 l 3,0 0,3 -3,0 z M 153,201 l 3,0 0,3 -3,0 z M 165,201 l 3,0 0,3 -3,0 z M 168,201 l 3,0 0,3 -3,0 z M 171,201 l 3,0 0,3 -3,0 z M 177,201 l 3,0 0,3 -3,0 z M 180,201 l 3,0 0,3 -3,0 z M 192,201 l 3,0 0,3 -3,0 z M 198,201 l 3,0 0,3 -3,0 z M 207,201 l 3,0 0,3 -3,0 z M 219,201 l 3,0 0,3 -3,0 z M 228,201 l 3,0 0,3 -3,0 z M 3,204 l 3,0 0,3 -3,0 z M 6,204 l 3,0 0,3 -3,0 z M 9,204 l 3,0 0,3 -3,0 z M 12,204 l 3,0 0,3 -3,0 z M 18,204 l 3,0 0,3 -3,0 z M 24,204 l 3,0 0,3 -3,0 z M 33,204 l 3,0 0,3 -3,0 z M 42,204 l 3,0 0,3 -3,0 z M 51,204 l 3,0 0,3 -3,0 z M 54,204 l 3,0 0,3 -3,0 z M 69,204 l 3,0 0,3 -3,0 z M 72,204 l 3,0 0,3 -3,0 z M 75,204 l 3,0 0,3 -3,0 z M 78,204 l 3,0 0,3 -3,0 z M 81,204 l 3,0 0,3 -3,0 z M 84,204 l 3,0 0,3 -3,0 z M 87,204 l 3,0 0,3 -3,0 z M 96,204 l 3,0 0,3 -3,0 z M 102,204 l 3,0 0,3 -3,0 z M 111,204 l 3,0 0,3 -3,0 z M 120,204 l 3,0 0,3 -3,0 z M 126,204 l 3,0 0,3 -3,0 z M 132,204 l 3,0 0,3 -3,0 z M 138,204 l 3,0 0,3 -3,0 z M 141,204 l 3,0 0,3 -3,0 z M 144,204 l 3,0 0,3 -3,0 z M 147,204 l 3,0 0,3 -3,0 z M 150,204 l 3,0 0,3 -3,0 z M 153,204 l 3,0 0,3 -3,0 z M 168,204 l 3,0 0,3 -3,0 z M 186,204 l 3,0 0,3 -3,0 z M 189,204 l 3,0 0,3 -3,0 z M 195,204 l 3,0 0,3 -3,0 z M 198,204 l 3,0 0,3 -3,0 z M 204,204 l 3,0 0,3 -3,0 z M 207,204 l 3,0 0,3 -3,0 z M 210,204 l 3,0 0,3 -3,0 z M 213,204 l 3,0 0,3 -3,0 z M 216,204 l 3,0 0,3 -3,0 z M 222,204 l 3,0 0,3 -3,0 z M 225,204 l 3,0 0,3 -3,0 z M 24,207 l 3,0 0,3 -3,0 z M 30,207 l 3,0 0,3 -3,0 z M 33,207 l 3,0 0,3 -3,0 z M 36,207 l 3,0 0,3 -3,0 z M 42,207 l 3,0 0,3 -3,0 z M 48,207 l 3,0 0,3 -3,0 z M 51,207 l 3,0 0,3 -3,0 z M 54,207 l 3,0 0,3 -3,0 z M 57,207 l 3,0 0,3 -3,0 z M 60,207 l 3,0 0,3 -3,0 z M 69,207 l 3,0 0,3 -3,0 z M 72,207 l 3,0 0,3 -3,0 z M 84,207 l 3,0 0,3 -3,0 z M 87,207 l 3,0 0,3 -3,0 z M 90,207 l 3,0 0,3 -3,0 z M 93,207 l 3,0 0,3 -3,0 z M 99,207 l 3,0 0,3 -3,0 z M 105,207 l 3,0 0,3 -3,0 z M 108,207 l 3,0 0,3 -3,0 z M 111,207 l 3,0 0,3 -3,0 z M 114,207 l 3,0 0,3 -3,0 z M 117,207 l 3,0 0,3 -3,0 z M 132,207 l 3,0 0,3 -3,0 z M 135,207 l 3,0 0,3 -3,0 z M 138,207 l 3,0 0,3 -3,0 z M 150,207 l 3,0 0,3 -3,0 z M 162,207 l 3,0 0,3 -3,0 z M 165,207 l 3,0 0,3 -3,0 z M 168,207 l 3,0 0,3 -3,0 z M 174,207 l 3,0 0,3 -3,0 z M 183,207 l 3,0 0,3 -3,0 z M 192,207 l 3,0 0,3 -3,0 z M 198,207 l 3,0 0,3 -3,0 z M 201,207 l 3,0 0,3 -3,0 z M 204,207 l 3,0 0,3 -3,0 z M 216,207 l 3,0 0,3 -3,0 z M 219,207 l 3,0 0,3 -3,0 z M 0,210 l 3,0 0,3 -3,0 z M 3,210 l 3,0 0,3 -3,0 z M 6,210 l 3,0 0,3 -3,0 z M 9,210 l 3,0 0,3 -3,0 z M 12,210 l 3,0 0,3 -3,0 z M 15,210 l 3,0 0,3 -3,0 z M 18,210 l 3,0 0,3 -3,0 z M 24,210 l 3,0 0,3 -3,0 z M 30,210 l 3,0 0,3 -3,0 z M 36,210 l 3,0 0,3 -3,0 z M 51,210 l 3,0 0,3 -3,0 z M 60,210 l 3,0 0,3 -3,0 z M 63,210 l 3,0 0,3 -3,0 z M 72,210 l 3,0 0,3 -3,0 z M 78,210 l 3,0 0,3 -3,0 z M 84,210 l 3,0 0,3 -3,0 z M 93,210 l 3,0 0,3 -3,0 z M 96,210 l 3,0 0,3 -3,0 z M 99,210 l 3,0 0,3 -3,0 z M 132,210 l 3,0 0,3 -3,0 z M 135,210 l 3,0 0,3 -3,0 z M 138,210 l 3,0 0,3 -3,0 z M 144,210 l 3,0 0,3 -3,0 z M 150,210 l 3,0 0,3 -3,0 z M 153,210 l 3,0 0,3 -3,0 z M 162,210 l 3,0 0,3 -3,0 z M 180,210 l 3,0 0,3 -3,0 z M 189,210 l 3,0 0,3 -3,0 z M 204,210 l 3,0 0,3 -3,0 z M 210,210 l 3,0 0,3 -3,0 z M 216,210 l 3,0 0,3 -3,0 z M 219,210 l 3,0 0,3 -3,0 z M 225,210 l 3,0 0,3 -3,0 z M 0,213 l 3,0 0,3 -3,0 z M 18,213 l 3,0 0,3 -3,0 z M 33,213 l 3,0 0,3 -3,0 z M 36,213 l 3,0 0,3 -3,0 z M 39,213 l 3,0 0,3 -3,0 z M 42,213 l 3,0 0,3 -3,0 z M 45,213 l 3,0 0,3 -3,0 z M 54,213 l 3,0 0,3 -3,0 z M 57,213 l 3,0 0,3 -3,0 z M 66,213 l 3,0 0,3 -3,0 z M 69,213 l 3,0 0,3 -3,0 z M 72,213 l 3,0 0,3 -3,0 z M 84,213 l 3,0 0,3 -3,0 z M 87,213 l 3,0 0,3 -3,0 z M 96,213 l 3,0 0,3 -3,0 z M 102,213 l 3,0 0,3 -3,0 z M 105,213 l 3,0 0,3 -3,0 z M 117,213 l 3,0 0,3 -3,0 z M 123,213 l 3,0 0,3 -3,0 z M 138,213 l 3,0 0,3 -3,0 z M 150,213 l 3,0 0,3 -3,0 z M 153,213 l 3,0 0,3 -3,0 z M 156,213 l 3,0 0,3 -3,0 z M 159,213 l 3,0 0,3 -3,0 z M 162,213 l 3,0 0,3 -3,0 z M 180,213 l 3,0 0,3 -3,0 z M 183,213 l 3,0 0,3 -3,0 z M 195,213 l 3,0 0,3 -3,0 z M 198,213 l 3,0 0,3 -3,0 z M 204,213 l 3,0 0,3 -3,0 z M 216,213 l 3,0 0,3 -3,0 z M 219,213 l 3,0 0,3 -3,0 z M 0,216 l 3,0 0,3 -3,0 z M 6,216 l 3,0 0,3 -3,0 z M 9,216 l 3,0 0,3 -3,0 z M 12,216 l 3,0 0,3 -3,0 z M 18,216 l 3,0 0,3 -3,0 z M 24,216 l 3,0 0,3 -3,0 z M 30,216 l 3,0 0,3 -3,0 z M 33,216 l 3,0 0,3 -3,0 z M 42,216 l 3,0 0,3 -3,0 z M 48,216 l 3,0 0,3 -3,0 z M 57,216 l 3,0 0,3 -3,0 z M 63,216 l 3,0 0,3 -3,0 z M 66,216 l 3,0 0,3 -3,0 z M 69,216 l 3,0 0,3 -3,0 z M 72,216 l 3,0 0,3 -3,0 z M 75,216 l 3,0 0,3 -3,0 z M 78,216 l 3,0 0,3 -3,0 z M 81,216 l 3,0 0,3 -3,0 z M 84,216 l 3,0 0,3 -3,0 z M 90,216 l 3,0 0,3 -3,0 z M 108,216 l 3,0 0,3 -3,0 z M 111,216 l 3,0 0,3 -3,0 z M 117,216 l 3,0 0,3 -3,0 z M 132,216 l 3,0 0,3 -3,0 z M 135,216 l 3,0 0,3 -3,0 z M 138,216 l 3,0 0,3 -3,0 z M 141,216 l 3,0 0,3 -3,0 z M 144,216 l 3,0 0,3 -3,0 z M 147,216 l 3,0 0,3 -3,0 z M 150,216 l 3,0 0,3 -3,0 z M 153,216 l 3,0 0,3 -3,0 z M 156,216 l 3,0 0,3 -3,0 z M 159,216 l 3,0 0,3 -3,0 z M 162,216 l 3,0 0,3 -3,0 z M 186,216 l 3,0 0,3 -3,0 z M 189,216 l 3,0 0,3 -3,0 z M 192,216 l 3,0 0,3 -3,0 z M 204,216 l 3,0 0,3 -3,0 z M 207,216 l 3,0 0,3 -3,0 z M 210,216 l 3,0 0,3 -3,0 z M 213,216 l 3,0 0,3 -3,0 z M 216,216 l 3,0 0,3 -3,0 z M 225,216 l 3,0 0,3 -3,0 z M 228,216 l 3,0 0,3 -3,0 z M 0,219 l 3,0 0,3 -3,0 z M 6,219 l 3,0 0,3 -3,0 z M 9,219 l 3,0 0,3 -3,0 z M 12,219 l 3,0 0,3 -3,0 z M 18,219 l 3,0 0,3 -3,0 z M 24,219 l 3,0 0,3 -3,0 z M 39,219 l 3,0 0,3 -3,0 z M 48,219 l 3,0 0,3 -3,0 z M 51,219 l 3,0 0,3 -3,0 z M 57,219 l 3,0 0,3 -3,0 z M 60,219 l 3,0 0,3 -3,0 z M 66,219 l 3,0 0,3 -3,0 z M 75,219 l 3,0 0,3 -3,0 z M 78,219 l 3,0 0,3 -3,0 z M 81,219 l 3,0 0,3 -3,0 z M 84,219 l 3,0 0,3 -3,0 z M 87,219 l 3,0 0,3 -3,0 z M 108,219 l 3,0 0,3 -3,0 z M 117,219 l 3,0 0,3 -3,0 z M 129,219 l 3,0 0,3 -3,0 z M 141,219 l 3,0 0,3 -3,0 z M 144,219 l 3,0 0,3 -3,0 z M 150,219 l 3,0 0,3 -3,0 z M 153,219 l 3,0 0,3 -3,0 z M 159,219 l 3,0 0,3 -3,0 z M 162,219 l 3,0 0,3 -3,0 z M 165,219 l 3,0 0,3 -3,0 z M 171,219 l 3,0 0,3 -3,0 z M 174,219 l 3,0 0,3 -3,0 z M 177,219 l 3,0 0,3 -3,0 z M 180,219 l 3,0 0,3 -3,0 z M 183,219 l 3,0 0,3 -3,0 z M 189,219 l 3,0 0,3 -3,0 z M 192,219 l 3,0 0,3 -3,0 z M 198,219 l 3,0 0,3 -3,0 z M 207,219 l 3,0 0,3 -3,0 z M 216,219 l 3,0 0,3 -3,0 z M 222,219 l 3,0 0,3 -3,0 z M 225,219 l 3,0 0,3 -3,0 z M 0,222 l 3,0 0,3 -3,0 z M 6,222 l 3,0 0,3 -3,0 z M 9,222 l 3,0 0,3 -3,0 z M 12,222 l 3,0 0,3 -3,0 z M 18,222 l 3,0 0,3 -3,0 z M 24,222 l 3,0 0,3 -3,0 z M 27,222 l 3,0 0,3 -3,0 z M 39,222 l 3,0 0,3 -3,0 z M 48,222 l 3,0 0,3 -3,0 z M 57,222 l 3,0 0,3 -3,0 z M 60,222 l 3,0 0,3 -3,0 z M 63,222 l 3,0 0,3 -3,0 z M 69,222 l 3,0 0,3 -3,0 z M 72,222 l 3,0 0,3 -3,0 z M 75,222 l 3,0 0,3 -3,0 z M 84,222 l 3,0 0,3 -3,0 z M 93,222 l 3,0 0,3 -3,0 z M 96,222 l 3,0 0,3 -3,0 z M 105,222 l 3,0 0,3 -3,0 z M 111,222 l 3,0 0,3 -3,0 z M 117,222 l 3,0 0,3 -3,0 z M 129,222 l 3,0 0,3 -3,0 z M 132,222 l 3,0 0,3 -3,0 z M 135,222 l 3,0 0,3 -3,0 z M 150,222 l 3,0 0,3 -3,0 z M 165,222 l 3,0 0,3 -3,0 z M 171,222 l 3,0 0,3 -3,0 z M 174,222 l 3,0 0,3 -3,0 z M 180,222 l 3,0 0,3 -3,0 z M 183,222 l 3,0 0,3 -3,0 z M 186,222 l 3,0 0,3 -3,0 z M 195,222 l 3,0 0,3 -3,0 z M 201,222 l 3,0 0,3 -3,0 z M 204,222 l 3,0 0,3 -3,0 z M 207,222 l 3,0 0,3 -3,0 z M 210,222 l 3,0 0,3 -3,0 z M 225,222 l 3,0 0,3 -3,0 z M 0,225 l 3,0 0,3 -3,0 z M 18,225 l 3,0 0,3 -3,0 z M 24,225 l 3,0 0,3 -3,0 z M 27,225 l 3,0 0,3 -3,0 z M 30,225 l 3,0 0,3 -3,0 z M 36,225 l 3,0 0,3 -3,0 z M 39,225 l 3,0 0,3 -3,0 z M 48,225 l 3,0 0,3 -3,0 z M 54,225 l 3,0 0,3 -3,0 z M 66,225 l 3,0 0,3 -3,0 z M 69,225 l 3,0 0,3 -3,0 z M 75,225 l 3,0 0,3 -3,0 z M 78,225 l 3,0 0,3 -3,0 z M 81,225 l 3,0 0,3 -3,0 z M 84,225 l 3,0 0,3 -3,0 z M 87,225 l 3,0 0,3 -3,0 z M 105,225 l 3,0 0,3 -3,0 z M 108,225 l 3,0 0,3 -3,0 z M 111,225 l 3,0 0,3 -3,0 z M 117,225 l 3,0 0,3 -3,0 z M 135,225 l 3,0 0,3 -3,0 z M 138,225 l 3,0 0,3 -3,0 z M 144,225 l 3,0 0,3 -3,0 z M 153,225 l 3,0 0,3 -3,0 z M 156,225 l 3,0 0,3 -3,0 z M 159,225 l 3,0 0,3 -3,0 z M 162,225 l 3,0 0,3 -3,0 z M 165,225 l 3,0 0,3 -3,0 z M 168,225 l 3,0 0,3 -3,0 z M 171,225 l 3,0 0,3 -3,0 z M 174,225 l 3,0 0,3 -3,0 z M 195,225 l 3,0 0,3 -3,0 z M 198,225 l 3,0 0,3 -3,0 z M 207,225 l 3,0 0,3 -3,0 z M 213,225 l 3,0 0,3 -3,0 z M 216,225 l 3,0 0,3 -3,0 z M 222,225 l 3,0 0,3 -3,0 z M 225,225 l 3,0 0,3 -3,0 z M 228,225 l 3,0 0,3 -3,0 z M 0,228 l 3,0 0,3 -3,0 z M 3,228 l 3,0 0,3 -3,0 z M 6,228 l 3,0 0,3 -3,0 z M 9,228 l 3,0 0,3 -3,0 z M 12,228 l 3,0 0,3 -3,0 z M 15,228 l 3,0 0,3 -3,0 z M 18,228 l 3,0 0,3 -3,0 z M 24,228 l 3,0 0,3 -3,0 z M 30,228 l 3,0 0,3 -3,0 z M 36,228 l 3,0 0,3 -3,0 z M 42,228 l 3,0 0,3 -3,0 z M 48,228 l 3,0 0,3 -3,0 z M 51,228 l 3,0 0,3 -3,0 z M 57,228 l 3,0 0,3 -3,0 z M 60,228 l 3,0 0,3 -3,0 z M 63,228 l 3,0 0,3 -3,0 z M 66,228 l 3,0 0,3 -3,0 z M 69,228 l 3,0 0,3 -3,0 z M 72,228 l 3,0 0,3 -3,0 z M 81,228 l 3,0 0,3 -3,0 z M 87,228 l 3,0 0,3 -3,0 z M 90,228 l 3,0 0,3 -3,0 z M 93,228 l 3,0 0,3 -3,0 z M 102,228 l 3,0 0,3 -3,0 z M 105,228 l 3,0 0,3 -3,0 z M 108,228 l 3,0 0,3 -3,0 z M 114,228 l 3,0 0,3 -3,0 z M 126,228 l 3,0 0,3 -3,0 z M 132,228 l 3,0 0,3 -3,0 z M 135,228 l 3,0 0,3 -3,0 z M 150,228 l 3,0 0,3 -3,0 z M 159,228 l 3,0 0,3 -3,0 z M 171,228 l 3,0 0,3 -3,0 z M 174,228 l 3,0 0,3 -3,0 z M 180,228 l 3,0 0,3 -3,0 z M 207,228 l 3,0 0,3 -3,0 z M 213,228 l 3,0 0,3 -3,0 z M 222,228 l 3,0 0,3 -3,0 z M 225,228 l 3,0 0,3 -3,0 z " />
	</g>
</svg>
